<?xml version="1.0" encoding="UTF-8" standalone="no"?>
<!-- Created with Inkscape (http://www.inkscape.org/) -->

<svg
   xmlns:dc="http://purl.org/dc/elements/1.1/"
   xmlns:cc="http://creativecommons.org/ns#"
   xmlns:rdf="http://www.w3.org/1999/02/22-rdf-syntax-ns#"
   xmlns:svg="http://www.w3.org/2000/svg"
   xmlns="http://www.w3.org/2000/svg"
   xmlns:sodipodi="http://sodipodi.sourceforge.net/DTD/sodipodi-0.dtd"
   xmlns:inkscape="http://www.inkscape.org/namespaces/inkscape"
   width="242.8875mm"
   height="273.04999mm"
   viewBox="0 0 242.8875 273.04999"
   version="1.1"
   id="svg104"
   inkscape:version="0.92.4 (5da689c313, 2019-01-14)"
   sodipodi:docname="C++.svg">
  <defs
     id="defs98" />
  <sodipodi:namedview
     id="base"
     pagecolor="#ffffff"
     bordercolor="#666666"
     borderopacity="1.0"
     inkscape:pageopacity="0.0"
     inkscape:pageshadow="2"
     inkscape:zoom="0.58"
     inkscape:cx="1005.2437"
     inkscape:cy="659.68506"
     inkscape:document-units="mm"
     inkscape:current-layer="layer1"
     showgrid="false"
     inkscape:window-width="1920"
     inkscape:window-height="986"
     inkscape:window-x="-11"
     inkscape:window-y="-11"
     inkscape:window-maximized="1" />
  <metadata
     id="metadata101">
    <rdf:RDF>
      <cc:Work
         rdf:about="">
        <dc:format>image/svg+xml</dc:format>
        <dc:type
           rdf:resource="http://purl.org/dc/dcmitype/StillImage" />
        <dc:title></dc:title>
      </cc:Work>
    </rdf:RDF>
  </metadata>
  <g
     inkscape:label="Layer 1"
     inkscape:groupmode="layer"
     id="layer1"
     transform="translate(24.681845,-12.308342)">
    <g
       id="g237"
       transform="translate(-280.54957,53.829023)">
      <path
         inkscape:connector-curvature="0"
         id="path125"
         d="m 371.89091,230.31496 c -2.6836,-0.86976 -4.76102,-2.11195 -62.13382,-37.15365 -20.32956,-12.41671 -38.36497,-23.45995 -40.07871,-24.54053 -3.8111,-2.40305 -6.70395,-5.03413 -8.02674,-7.30037 -0.84433,-1.44654 -0.9005,-1.80257 -0.36903,-2.33907 0.49245,-0.4971 29.58726,-18.3845 44.11961,-27.12461 2.35613,-1.41703 2.73444,-1.51902 3.17473,-0.85585 0.2749,0.41409 1.82444,2.77127 3.44337,5.2382 3.8053,5.79843 13.86586,16.48217 19.50628,20.71454 5.4748,4.1081 15.52002,9.37173 22.14246,11.60252 25.74601,8.67265 54.31524,2.82228 75.48594,-15.4579 4.54135,-3.92131 11.51098,-11.85154 14.85386,-16.90116 1.61783,-2.44382 3.17994,-4.80166 3.47134,-5.23962 0.4842,-0.72772 0.75083,-0.68155 3.09569,0.53615 2.58416,1.34196 40.25606,23.9956 43.43495,26.11919 1.69423,1.1318 1.70197,1.15144 1.01196,2.56429 -1.01403,2.07627 -3.26513,4.65415 -5.46128,6.25405 -2.1411,1.55978 -24.84857,15.51966 -65.74125,40.41575 -34.50433,21.00676 -36.86523,22.39582 -39.48257,23.22986 -2.29474,0.73125 -10.44429,0.88723 -12.44679,0.23821 z"
         style="opacity:1;fill:#004482;fill-opacity:1;stroke-width:0.4666833" />
      <path
         inkscape:connector-curvature="0"
         id="path137"
         d="m 369.34513,132.22603 c -6.90801,-1.85132 -14.29911,-6.13976 -18.99248,-11.01974 -2.79464,-2.90576 -5.64114,-6.62783 -5.64114,-7.37632 0,-0.63815 2.26332,-2.02043 20.38651,-12.45067 7.57456,-4.359297 14.05219,-7.925997 14.39475,-7.925997 0.78041,0 33.43707,18.372447 34.4992,19.409047 0.38131,0.37216 -2.41098,4.46405 -4.82715,7.07379 -4.86989,5.26007 -11.05448,9.23177 -18.15123,11.65662 -3.26281,1.11485 -4.42266,1.26301 -10.94827,1.39856 -6.19633,0.12871 -7.81566,0.0131 -10.72019,-0.76529 z"
         style="opacity:1;fill:#004482;fill-opacity:1;stroke-width:0.45617816" />
      <path
         inkscape:connector-curvature="0"
         id="path153"
         d="m 261.53541,163.56963 c -2.23072,-3.46404 -2.11864,0.0774 -2.11864,-66.943307 v -62.40522 l 1.80019,-3.570859 c 2.20492,-4.373702 4.61452,-7.305556 7.72153,-9.395057 5.02487,-3.379304 95.91006,-56.54588 100.27186,-58.657655 3.1321,-1.516411 3.80322,-1.665835 8.17706,-1.820593 6.21884,-0.220038 7.88462,0.301427 16.3808,5.127959 14.96023,8.49866 89.46293,52.336116 93.92949,55.26821 2.94888,1.935805 6.83219,6.2349 6.52481,7.223408 -0.0868,0.279167 -4.07901,2.845181 -8.87155,5.702249 -11.68661,6.966966 -36.49725,21.427585 -37.30569,21.743244 -0.44012,0.171836 -1.6342,-1.163661 -3.72924,-4.170889 -10.606,-15.2239 -24.57168,-25.814774 -41.73326,-31.648402 -6.46024,-2.195997 -11.41314,-3.063812 -19.64847,-3.442695 -15.82807,-0.728198 -27.62877,1.751235 -40.71574,8.554749 -20.21316,10.508205 -34.98645,29.359029 -40.90683,52.19742 -1.97414,7.615441 -2.47808,24.481218 -1.02009,34.140138 0.64875,4.29791 3.89805,14.37534 6.61891,20.52801 1.71816,3.88528 2.09852,5.14123 1.68506,5.56404 -0.78494,0.80268 -43.91638,26.14592 -45.64851,26.82223 -0.45127,0.17619 -0.96273,-0.1198 -1.41169,-0.81698 z"
         style="opacity:1;fill:#649ad2;fill-opacity:1;stroke-width:0.45224184" />
      <path
         inkscape:connector-curvature="0"
         id="path161"
         d="m 342.96762,110.87159 c -2.57611,-5.58895 -3.38621,-9.57768 -3.39863,-16.73402 -0.009,-5.161542 0.17932,-7.086465 0.98164,-10.035919 2.00975,-7.388153 5.73109,-13.628904 11.30541,-18.95938 5.32706,-5.09402 10.75025,-8.175749 17.72777,-10.073801 5.1057,-1.388872 14.83794,-1.399048 19.93429,-0.02085 7.73752,2.09246 13.91698,5.830541 19.56096,11.832825 4.04956,4.306644 5.5654,6.797141 4.52594,7.436067 -2.99387,1.840267 -68.71704,39.654558 -68.92941,39.659028 -0.15103,0.003 -0.91962,-1.3936 -1.70797,-3.10396 z"
         style="opacity:1;fill:#649ad2;fill-opacity:1;stroke-width:0.45617816" />
      <path
         inkscape:connector-curvature="0"
         id="path183"
         d="m 472.24255,149.23877 c -11.27997,-6.56263 -21.91345,-12.8106 -23.62996,-13.88438 -4.71978,-2.95248 -20.00409,-11.98313 -28.5343,-16.85933 -4.16868,-2.38299 -11.79268,-6.73958 -16.94223,-9.68134 -14.25258,-8.14197 -23.09728,-13.392088 -23.98981,-14.240072 -0.97398,-0.925369 -8.12615,3.37231 83.28763,-50.046946 31.49237,-18.403125 30.8876,-18.063137 31.62162,-17.776886 0.33845,0.131989 1.08636,1.426424 1.66203,2.87652 l 1.04668,2.636542 v 61.848761 61.848771 l -1.20155,2.60534 c -0.81106,1.75866 -1.46308,2.60531 -2.00632,2.60522 -0.44262,-7e-5 -10.03382,-5.36955 -21.31379,-11.9322 z m -23.40704,-46.29158 v -4.304506 h 4.45848 4.45849 V 93.885087 89.12749 h -4.45849 -4.45848 v -4.456116 -4.456109 l -3.67825,0.20759 c -5.05152,0.285092 -5.23739,0.421522 -5.2448,3.849704 -0.0108,4.966957 0.0983,4.854931 -4.72732,4.854931 h -4.18357 v 4.757597 4.757597 h 4.23557 4.23556 v 4.304506 4.30449 h 4.68141 4.6814 z m 32.99278,0 v -4.304506 h 4.45848 4.45849 V 93.885087 89.12749 h -4.45849 -4.45848 v -4.480903 -4.480905 l -3.90118,0.235264 c -2.14563,0.129397 -4.15196,0.437644 -4.45848,0.685 -0.30652,0.24735 -0.55731,1.211892 -0.55731,2.143425 0,0.931531 -0.12759,2.63969 -0.28352,3.795908 l -0.28353,2.102211 h -4.17496 -4.17495 v 4.757597 4.757597 h 4.23556 4.23555 v 4.304506 4.30449 h 4.68141 4.68141 z"
         style="opacity:1;fill:#00589c;fill-opacity:1;stroke-width:0.44946179" />
      <path
         inkscape:connector-curvature="0"
         id="path203"
         d="m 365.38194,173.05178 c -12.43925,-2.02317 -25.52945,-7.52109 -35.4885,-14.90528 -4.88416,-3.62137 -12.05688,-10.58382 -15.6569,-15.19787 -5.96714,-7.64793 -8.96499,-13.20645 -12.69023,-23.52977 -3.5635,-9.87509 -3.7351,-11.09913 -3.73608,-26.649825 -10e-4,-14.913658 0.0278,-15.133299 3.24102,-24.767855 1.79237,-5.374272 7.58342,-16.694956 11.01574,-21.534228 3.93272,-5.544799 13.24028,-14.85792 18.81528,-18.826525 7.6428,-5.440579 21.21353,-11.529239 30.37584,-13.628452 3.68118,-0.843409 27.85032,-0.865081 32.2658,-0.02893 8.29029,1.569911 21.25582,7.127748 29.63112,12.701757 4.85157,3.228861 13.88594,11.620508 18.10503,16.816996 4.18365,5.152845 6.63071,8.853754 6.15208,9.304321 -0.65399,0.615649 -33.97253,19.662992 -34.39545,19.662992 -0.20217,0 -1.2349,-1.124212 -2.29496,-2.498243 -2.74138,-3.553336 -7.78328,-8.183698 -11.68333,-10.729675 -3.7475,-2.446393 -9.67704,-4.762889 -13.97833,-5.46091 -4.08058,-0.662207 -12.37473,-0.564806 -15.92157,0.186973 -14.01574,2.970742 -26.80677,15.168767 -30.192,28.792252 -0.92432,3.719846 -1.29182,11.004524 -0.80414,15.939847 1.52544,15.437245 14.04836,29.487725 29.87736,33.521835 2.66126,0.67824 5.09092,0.91961 9.25684,0.91961 9.22471,0 15.60838,-1.80081 22.52591,-6.35449 3.19408,-2.1026 9.31519,-7.98307 11.84737,-11.38161 l 1.14875,-1.54179 2.03663,1.03385 c 8.06763,4.09533 32.37248,18.60086 32.37248,19.32043 0,0.64418 -3.70748,6.18301 -6.30252,9.41571 -11.43477,14.24455 -28.78791,24.79241 -47.29841,28.74967 -6.04014,1.29129 -22.06408,1.67122 -28.22483,0.66921 z"
         style="opacity:1;fill:#ffffff;fill-opacity:1;stroke-width:0.45617816" />
      <path
         inkscape:connector-curvature="0"
         id="path215"
         d="m 440.16813,102.6899 v -4.561785 h -4.3337 -4.33369 V 93.794422 89.46073 h 4.27649 4.27649 l 0.20404,-3.887496 c 0.11222,-2.138125 0.43834,-4.121796 0.7247,-4.408162 0.28637,-0.286364 2.17045,-0.61617 4.18686,-0.732896 l 3.66619,-0.212233 v 4.620395 4.620392 h 4.56178 4.56178 v 4.333692 4.333693 h -4.56178 -4.56178 v 4.561785 4.56178 h -4.33369 -4.33369 z"
         style="opacity:1;fill:#ffffff;fill-opacity:1;stroke-width:0.45617816" />
      <path
         inkscape:connector-curvature="0"
         id="path227"
         d="m 473.16091,102.6899 v -4.561785 h -4.3337 -4.33369 V 93.794422 89.46073 h 4.27789 4.2779 l 0.19571,-4.093456 c 0.10764,-2.2514 0.34076,-4.238503 0.51804,-4.415787 0.17728,-0.177282 2.06449,-0.413772 4.19378,-0.525532 l 3.87145,-0.2032 v 4.618988 4.618987 h 4.56178 4.56178 v 4.333692 4.333693 h -4.56178 -4.56178 v 4.561785 4.56178 h -4.33369 -4.33369 z"
         style="opacity:1;fill:#ffffff;fill-opacity:1;stroke-width:0.45617816" />
    </g>
  </g>
</svg>
