<?xml version="1.0" encoding="UTF-8" standalone="no"?>
<!-- Created with Inkscape (http://www.inkscape.org/) -->

<svg
   xmlns:dc="http://purl.org/dc/elements/1.1/"
   xmlns:cc="http://creativecommons.org/ns#"
   xmlns:rdf="http://www.w3.org/1999/02/22-rdf-syntax-ns#"
   xmlns:svg="http://www.w3.org/2000/svg"
   xmlns="http://www.w3.org/2000/svg"
   xmlns:sodipodi="http://sodipodi.sourceforge.net/DTD/sodipodi-0.dtd"
   xmlns:inkscape="http://www.inkscape.org/namespaces/inkscape"
   width="60.48946mm"
   height="59.956676mm"
   viewBox="0 0 60.48946 59.956676"
   version="1.1"
   id="svg3858"
   inkscape:version="0.92.4 (5da689c313, 2019-01-14)"
   sodipodi:docname="facebook.svg">
  <defs
     id="defs3852" />
  <sodipodi:namedview
     id="base"
     pagecolor="#ffffff"
     bordercolor="#666666"
     borderopacity="1.0"
     inkscape:pageopacity="0.0"
     inkscape:pageshadow="2"
     inkscape:zoom="1.01"
     inkscape:cx="356.57307"
     inkscape:cy="-14.255521"
     inkscape:document-units="mm"
     inkscape:current-layer="layer1"
     showgrid="false"
     inkscape:window-width="1920"
     inkscape:window-height="1017"
     inkscape:window-x="-8"
     inkscape:window-y="-8"
     inkscape:window-maximized="1" />
  <metadata
     id="metadata3855">
    <rdf:RDF>
      <cc:Work
         rdf:about="">
        <dc:format>image/svg+xml</dc:format>
        <dc:type
           rdf:resource="http://purl.org/dc/dcmitype/StillImage" />
        <dc:title></dc:title>
      </cc:Work>
    </rdf:RDF>
  </metadata>
  <g
     inkscape:label="Layer 1"
     inkscape:groupmode="layer"
     id="layer1"
     transform="translate(-60.705703,-85.104884)">
    <path
       style="fill:#2e4d87;fill-opacity:1;stroke-width:0.2619637"
       d="m 70.806295,144.76971 c -2.89289,-0.67916 -6.09221,-2.9156 -7.62893,-5.3329 -1.91965,-3.01967 -2.01919,-3.58347 -2.24465,-12.71322 -0.34984,-14.16702 -0.28707,-28.958356 0.13128,-30.931846 0.95583,-4.509 3.28437,-7.31409 8.27048,-9.9631 l 1.17884,-0.62629 18.33745,-0.076 c 20.123105,-0.0834 22.680335,0.033 24.932645,1.13494 1.88925,0.92432 5.30603,4.29469 6.09692,6.01409 1.2266,2.66665 1.30404,4.02062 1.31381,22.970176 0.0101,19.60066 -0.0233,20.07672 -1.61972,23.07188 -0.45916,0.86147 -1.49162,2.23021 -2.29436,3.04162 -2.76628,2.79621 -5.38483,3.69184 -10.81224,3.69813 l -3.34004,0.004 v -11.5264 -11.52641 l 2.29219,-0.002 c 1.2607,-10e-4 2.92066,-0.0778 3.6888,-0.16999 1.16841,-0.14032 1.43694,-0.27375 1.64333,-0.81658 0.36858,-0.96946 1.15557,-7.87015 0.92396,-8.10176 -0.16276,-0.16276 -4.10533,-0.45389 -7.82787,-0.57802 l -0.72041,-0.0239 0.001,-3.73298 c 0.002,-5.56488 0.17756,-5.74504 5.96093,-6.09879 2.72133,-0.16646 2.96004,-0.22374 3.08802,-0.74104 0.0762,-0.30836 0.10469,-2.152076 0.0632,-4.097146 l -0.0754,-3.53651 -4.71535,-0.079 c -5.509,-0.0923 -7.09136,0.20563 -9.556625,1.79901 -3.26448,2.10994 -4.33848,4.620596 -4.78086,11.176106 -0.3678,5.45042 -0.256,5.31245 -4.49023,5.5411 -1.65171,0.0892 -3.07679,0.23597 -3.16684,0.32617 -0.23506,0.23542 -0.27454,8.44634 -0.0424,8.82191 0.13366,0.21628 1.1968,0.3138 3.42095,0.3138 2.68112,0 3.28782,0.0732 3.58654,0.4329 0.28914,0.34814 0.37625,2.60459 0.44496,11.5264 l 0.0854,11.0935 -10.56398,-0.0263 c -5.81019,-0.0145 -11.02156,-0.13374 -11.58082,-0.26503 z"
       id="path3895"
       inkscape:connector-curvature="0" />
  </g>
</svg>
