<?xml version="1.0" encoding="UTF-8" standalone="no"?>
<!-- Created with Inkscape (http://www.inkscape.org/) -->

<svg
   xmlns:dc="http://purl.org/dc/elements/1.1/"
   xmlns:cc="http://creativecommons.org/ns#"
   xmlns:rdf="http://www.w3.org/1999/02/22-rdf-syntax-ns#"
   xmlns:svg="http://www.w3.org/2000/svg"
   xmlns="http://www.w3.org/2000/svg"
   xmlns:sodipodi="http://sodipodi.sourceforge.net/DTD/sodipodi-0.dtd"
   xmlns:inkscape="http://www.inkscape.org/namespaces/inkscape"
   width="151.86472mm"
   height="167.69447mm"
   viewBox="0 0 151.86472 167.69447"
   version="1.1"
   id="svg8"
   inkscape:version="0.92.4 (5da689c313, 2019-01-14)"
   sodipodi:docname="hackerrank.svg">
  <defs
     id="defs2" />
  <sodipodi:namedview
     id="base"
     pagecolor="#ffffff"
     bordercolor="#666666"
     borderopacity="1.0"
     inkscape:pageopacity="0.0"
     inkscape:pageshadow="2"
     inkscape:zoom="0.76"
     inkscape:cx="329.61833"
     inkscape:cy="246.34412"
     inkscape:document-units="mm"
     inkscape:current-layer="layer1"
     showgrid="false"
     inkscape:window-width="1920"
     inkscape:window-height="986"
     inkscape:window-x="-11"
     inkscape:window-y="-11"
     inkscape:window-maximized="1" />
  <metadata
     id="metadata5">
    <rdf:RDF>
      <cc:Work
         rdf:about="">
        <dc:format>image/svg+xml</dc:format>
        <dc:type
           rdf:resource="http://purl.org/dc/dcmitype/StillImage" />
        <dc:title></dc:title>
      </cc:Work>
    </rdf:RDF>
  </metadata>
  <g
     inkscape:label="Layer 1"
     inkscape:groupmode="layer"
     id="layer1"
     transform="translate(-39.82631,-46.317402)">
    <g
       id="g48">
      <path
         inkscape:connector-curvature="0"
         id="path36"
         d="m 134.68987,180.73441 c -2.6852,-1.63723 -11.38983,-10.76305 -10.8148,-11.33809 0.0969,-0.0969 1.20847,-0.27262 2.47008,-0.39043 1.64173,-0.15331 2.35785,-0.37358 2.51901,-0.77484 0.12384,-0.30834 0.31225,-7.25789 0.41867,-15.44344 l 0.1935,-14.88281 h -13.28111 -13.2811 l -0.005,12.09772 c -0.003,6.65375 -0.0941,12.43085 -0.20342,12.838 -0.17576,0.65496 -0.50621,0.75782 -2.86736,0.8925 -1.46779,0.0837 -4.19615,0.0844 -6.06303,10e-4 l -3.39433,-0.1506 -0.025,-28.59266 c -0.0283,-32.32619 -0.27933,-43.27919 -1.0022,-43.72594 -0.25676,-0.15869 -1.46229,-0.39513 -2.67897,-0.52543 -1.3091,-0.14019 -2.21213,-0.40165 -2.21213,-0.6405 0,-0.48486 9.8637,-10.31736 11.22739,-11.19186 0.91475,-0.58662 0.99999,-0.58655 1.91475,0.002 1.56785,1.00806 10.87924,10.45939 10.87924,11.04274 0,0.39684 -0.53165,0.59988 -2.02445,0.77314 -1.11346,0.12923 -2.24624,0.37203 -2.5173,0.53955 -0.72738,0.44954 -0.94449,4.1385 -1.23394,20.96531 l -0.256,14.88282 h 13.45992 13.45993 V 112.66534 98.21769 h 6.23962 6.23962 l -0.0526,33.68216 c -0.0336,21.49414 0.074,34.24904 0.29728,35.24877 l 0.34988,1.56661 2.40398,0.26649 c 1.32219,0.14657 2.47165,0.33416 2.55436,0.41686 0.39761,0.39761 -1.70775,2.88203 -6.13487,7.23943 -2.67341,2.6313 -4.99485,4.7836 -5.15874,4.78288 -0.1639,-7.9e-4 -0.8034,-0.30945 -1.4211,-0.68608 z"
         style="opacity:1;fill:#ffffff;fill-opacity:1;stroke-width:0.34813595" />
      <path
         inkscape:connector-curvature="0"
         id="path44"
         d="m 111.09883,212.88655 c -11.210616,-3.95854 -36.492046,-17.78207 -53.786996,-29.40997 -8.40518,-5.65105 -13.07598,-9.58336 -14.19618,-11.95161 -3.37158,-7.12806 -4.4622,-52.08426 -1.7969,-74.070071 0.89797,-7.40727 1.47088,-8.94358 4.38649,-11.7628 10.83039,-10.47234 59.800526,-38.21314 69.456896,-39.34622 0.9354,-0.10976 2.34278,0.10007 3.95433,0.58956 14.2762,4.33626 58.07026,29.79556 67.36266,39.16071 2.39228,2.41099 2.90837,3.69801 3.77942,9.42495 1.12797,7.416081 1.43116,14.747691 1.43247,34.639531 0.001,19.90097 -0.30039,27.19644 -1.43247,34.63953 -1.05056,6.90722 -1.81642,8.21943 -7.39236,12.66602 -12.02993,9.59339 -46.01259,29.20393 -59.93074,34.58453 -6.25501,2.41812 -7.17219,2.48288 -11.83662,0.83584 z m 26.6969,-32.29596 c 1.02822,-0.79327 3.51398,-3.15846 5.52391,-5.25599 3.53947,-3.69372 4.96455,-5.61864 4.41232,-5.95994 -0.1467,-0.0907 -1.39605,-0.27613 -2.77634,-0.41214 l -2.5096,-0.24729 -0.24186,-1.26126 c -0.28745,-1.49904 -0.36863,-39.34101 -0.12123,-56.50981 0.13896,-9.64287 0.0826,-12.171111 -0.27947,-12.532901 -0.33694,-0.33668 -1.97772,-0.4532 -6.38185,-0.4532 -5.40915,0 -5.97037,0.0575 -6.40857,0.6572 -0.39802,0.54468 -0.44316,3.033281 -0.2636,14.534681 l 0.21665,13.87747 H 115.80434 102.6426 l 0.26234,-14.53468 c 0.1443,-7.99407 0.36284,-15.944621 0.48566,-17.667901 l 0.22331,-3.13322 2.39516,-0.23671 c 3.08203,-0.3046 3.37063,-0.60543 2.135,-2.22543 -1.37307,-1.80019 -8.697806,-8.97818 -10.282076,-10.07607 -1.29906,-0.90026 -1.34105,-0.90561 -2.48457,-0.31689 -1.70047,0.87546 -11.43319,10.7103 -11.43319,11.55316 0,0.77865 1.14324,1.12787 3.69231,1.12787 1.28281,0 1.54648,0.12069 1.7113,0.78331 0.10716,0.43082 0.30597,16.762741 0.4418,36.293171 l 0.24697,35.50987 3.22025,0.2036 c 1.77115,0.11198 4.66938,0.11198 6.44052,0 l 3.220256,-0.2036 0.0914,-12.61993 0.0914,-12.61993 h 12.87669 12.87669 l -0.002,12.61993 c -0.001,6.94096 -0.10042,13.65682 -0.22013,14.92414 l -0.21767,2.3042 -2.43464,0.22628 c -1.33905,0.12445 -2.57203,0.31119 -2.73995,0.41497 -0.56868,0.35147 0.47773,1.70131 4.53162,5.84568 4.10179,4.19333 7.10929,6.83366 7.78397,6.83366 0.20446,0 1.21302,-0.64904 2.24124,-1.4423 z"
         style="opacity:1;fill:#00b760;fill-opacity:1;stroke-width:0.34813595" />
    </g>
  </g>
</svg>
