<?xml version="1.0" encoding="UTF-8" standalone="no"?>
<!-- Created with Inkscape (http://www.inkscape.org/) -->

<svg
   xmlns:dc="http://purl.org/dc/elements/1.1/"
   xmlns:cc="http://creativecommons.org/ns#"
   xmlns:rdf="http://www.w3.org/1999/02/22-rdf-syntax-ns#"
   xmlns:svg="http://www.w3.org/2000/svg"
   xmlns="http://www.w3.org/2000/svg"
   xmlns:sodipodi="http://sodipodi.sourceforge.net/DTD/sodipodi-0.dtd"
   xmlns:inkscape="http://www.inkscape.org/namespaces/inkscape"
   width="135.98448mm"
   height="85.919327mm"
   viewBox="0 0 135.98448 85.919327"
   version="1.1"
   id="svg245"
   inkscape:version="0.92.4 (5da689c313, 2019-01-14)"
   sodipodi:docname="java.svg">
  <defs
     id="defs239" />
  <sodipodi:namedview
     id="base"
     pagecolor="#ffffff"
     bordercolor="#666666"
     borderopacity="1.0"
     inkscape:pageopacity="0.0"
     inkscape:pageshadow="2"
     inkscape:zoom="1.01"
     inkscape:cx="620.49126"
     inkscape:cy="152.8396"
     inkscape:document-units="mm"
     inkscape:current-layer="layer1"
     showgrid="false"
     inkscape:window-width="1920"
     inkscape:window-height="986"
     inkscape:window-x="-11"
     inkscape:window-y="-11"
     inkscape:window-maximized="1" />
  <metadata
     id="metadata242">
    <rdf:RDF>
      <cc:Work
         rdf:about="">
        <dc:format>image/svg+xml</dc:format>
        <dc:type
           rdf:resource="http://purl.org/dc/dcmitype/StillImage" />
        <dc:title></dc:title>
      </cc:Work>
    </rdf:RDF>
  </metadata>
  <g
     inkscape:label="Layer 1"
     inkscape:groupmode="layer"
     id="layer1"
     transform="translate(-29.184587,-103.35282)">
    <path
       style="opacity:1;fill:#eb2d2f;fill-opacity:1;stroke-width:0.99009901"
       d=""
       id="path332"
       inkscape:connector-curvature="0"
       transform="scale(0.26458333)" />
    <path
       style="opacity:1;fill:#0173bb;fill-opacity:1;stroke-width:0.99009901"
       d=""
       id="path400"
       inkscape:connector-curvature="0"
       transform="scale(0.26458333)" />
    <path
       style="opacity:1;fill:#0173bb;fill-opacity:1;stroke-width:0.99009901"
       d=""
       id="path416"
       inkscape:connector-curvature="0"
       transform="scale(0.26458333)" />
    <path
       style="opacity:1;fill:#0173bb;fill-opacity:1;stroke-width:0.99009901"
       d=""
       id="path432"
       inkscape:connector-curvature="0"
       transform="scale(0.26458333)" />
    <g
       id="g579">
      <path
         transform="scale(0.26458333)"
         inkscape:connector-curvature="0"
         id="path258"
         d="m 250.48725,569.41704 c 2.54023,-5.98431 3.39151,-11.67026 2.40763,-16.08119 -1.13607,-5.09324 -2.30351,-7.12419 -8.39199,-14.5992 -2.30064,-2.82456 -5.68,-8.17644 -7.50969,-11.89307 -3.06944,-6.23493 -3.3267,-7.4865 -3.3267,-16.18426 0,-8.60399 0.25924,-9.90205 2.97029,-14.87231 7.17384,-13.15203 24.99295,-26.15411 48.80067,-35.60838 4.51364,-1.79241 8.42282,-3.04272 8.68708,-2.77845 0.26426,0.26426 -2.0079,1.99207 -5.04925,3.83959 -10.47023,6.36031 -24.72737,17.36802 -30.2323,23.34186 -7.27225,7.89171 -9.27837,12.16063 -9.22075,19.62122 0.0526,6.80838 1.08529,9.15355 9.38776,21.31869 3.17085,4.64607 6.50105,10.20857 7.40044,12.36111 2.01865,4.83131 1.40733,11.50203 -1.59302,17.38321 -3.46073,6.78359 -16.7902,19.94657 -14.33017,14.15118 z"
         style="opacity:1;fill:#eb2d2f;fill-opacity:1;stroke-width:0.99009901" />
      <path
         transform="scale(0.26458333)"
         inkscape:connector-curvature="0"
         id="path260"
         d="m 250.00313,570.6988 c 0,-0.22297 0.66832,-2.29961 1.48515,-4.61476 3.22991,-9.15455 1.30814,-17.10736 -6.34025,-26.23762 -2.28086,-2.72277 -5.79728,-8.27157 -7.81428,-12.33066 -3.46356,-6.97025 -3.66644,-7.90513 -3.6526,-16.83168 0.0128,-8.27624 0.33859,-10.06711 2.61965,-14.40202 5.4045,-10.27064 16.82169,-20.24827 33.00926,-28.84719 8.38516,-4.45425 24.06214,-10.78704 24.82215,-10.02703 0.24823,0.24823 -3.77003,3.20047 -8.92946,6.56054 -18.1014,11.78849 -29.53723,22.20055 -33.31602,30.33348 -2.21831,4.77438 -2.45364,13.74505 -0.48383,18.44344 0.76988,1.83631 4.29273,7.66175 7.82857,12.94543 3.53584,5.28368 6.96877,11.24283 7.62874,13.24255 2.48187,7.52013 -0.71574,16.80894 -8.73916,25.38663 -4.0454,4.32486 -8.11792,7.52496 -8.11792,6.37889 z"
         style="opacity:1;fill:#eb2d2f;fill-opacity:1;stroke-width:0.99009901" />
      <path
         transform="scale(0.26458333)"
         inkscape:connector-curvature="0"
         id="path262"
         d="m 250.00313,570.66397 c 0,-0.20381 0.66832,-2.26478 1.48515,-4.57993 3.16909,-8.98217 1.74133,-14.75817 -6.48561,-26.23762 -10.05349,-14.02813 -11.33453,-17.27304 -11.33541,-28.71287 -6.6e-4,-8.58766 0.32757,-10.55473 2.47448,-14.82941 4.95312,-9.86205 19.14207,-21.93634 35.35872,-30.089 8.05238,-4.04821 21.08077,-9.20572 22.26088,-8.81236 0.51153,0.17051 -4.11243,3.71921 -10.27547,7.88599 -14.9176,10.08569 -24.33102,18.17002 -28.92635,24.84225 -3.13004,4.54466 -3.86767,6.56982 -4.28453,11.76307 -0.63088,7.85932 0.51258,10.75083 9.84149,24.88678 6.06558,9.19106 7.12117,11.44286 7.4988,15.9966 0.35008,4.22153 -0.0792,6.43278 -2.11006,10.86874 -3.03179,6.6223 -15.50209,20.31184 -15.50209,17.01776 z"
         style="opacity:1;fill:#eb2d2f;fill-opacity:1;stroke-width:0.99009901" />
      <path
         transform="scale(0.26458333)"
         inkscape:connector-curvature="0"
         id="path264"
         d="m 250.4814,568.80681 c 1.96946,-6.18617 2.72446,-11.56938 2.09398,-14.93014 -0.41117,-2.19174 -3.79544,-8.27004 -8.20196,-14.73107 -9.66768,-14.1752 -11.53534,-19.3593 -11.00845,-30.55639 0.33529,-7.12534 0.85566,-9.26709 3.24753,-13.36633 5.96922,-10.23017 19.34178,-21.24074 35.66786,-29.36784 8.93496,-4.44782 20.16236,-8.89179 21.41207,-8.47522 0.53672,0.1789 -4.06143,3.75859 -10.21811,7.95486 -23.99876,16.35708 -33.46032,27.22547 -33.40599,38.37312 0.0313,6.42177 1.65172,10.15322 9.90715,22.81393 7.24438,11.11012 7.35438,11.37557 7.35438,17.7473 0,8.11406 -1.92329,12.17331 -9.71353,20.5011 -6.14702,6.57118 -8.33612,7.80969 -7.13493,4.03668 z"
         style="opacity:1;fill:#eb2d2f;fill-opacity:1;stroke-width:0.99009901" />
      <path
         transform="scale(0.26458333)"
         inkscape:connector-curvature="0"
         id="path266"
         d="m 250.01385,570.29196 c 0.006,-0.40841 0.67421,-2.92972 1.48514,-5.6029 0.81094,-2.67318 1.47408,-6.01476 1.47366,-7.42574 -10e-4,-3.39572 -4.69926,-12.63556 -11.26509,-22.15471 -7.00233,-10.15199 -8.90227,-16.2844 -8.34351,-26.93026 0.37804,-7.20263 0.85495,-8.92948 3.83246,-13.87696 6.074,-10.09269 18.44508,-20.12455 35.08385,-28.44992 9.46514,-4.73598 21.03719,-9.25829 21.78283,-8.51265 0.24656,0.24656 -4.9415,4.18952 -11.52903,8.76213 -13.87867,9.63362 -25.58359,20.18965 -29.16682,26.30397 -1.43819,2.45409 -2.74185,6.54894 -3.05696,9.60207 -0.67772,6.56655 0.98412,10.64977 10.25004,25.18476 7.60996,11.93735 8.64309,16.40898 5.7816,25.0241 -2.17716,6.55483 -16.38896,22.288 -16.32817,18.07611 z"
         style="opacity:1;fill:#eb2d2f;fill-opacity:1;stroke-width:0.99009901" />
      <path
         transform="scale(0.26458333)"
         inkscape:connector-curvature="0"
         id="path268"
         d="m 250.40637,568.80681 c 3.72966,-13.10108 3.22358,-15.34688 -6.89382,-30.59267 -8.9677,-13.51332 -10.7402,-18.76245 -10.14767,-30.05163 0.34984,-6.66523 0.92976,-8.96439 3.26938,-12.96174 7.79558,-13.31912 25.99231,-26.35895 50.20611,-35.97783 8.6873,-3.45101 8.7487,-2.0143 0.16483,3.85686 -21.9129,14.98787 -33.03967,25.66436 -35.54742,34.10887 -2.74314,9.23716 -1.77202,12.52329 8.56901,28.99612 l 7.30307,11.63349 -0.0355,6.95466 c -0.0433,8.49566 -1.53468,11.58805 -9.67854,20.06903 -6.28142,6.54146 -8.25143,7.62485 -7.20948,3.96484 z"
         style="opacity:1;fill:#eb2d2f;fill-opacity:1;stroke-width:0.99009901" />
      <path
         transform="scale(0.26458333)"
         inkscape:connector-curvature="0"
         id="path270"
         d="m 250.40928,568.80681 c 3.61161,-12.62849 2.94154,-15.50198 -7.22325,-30.97578 -3.83131,-5.83237 -7.70408,-12.82644 -8.60618,-15.54239 -2.2947,-6.9087 -1.58725,-20.47322 1.36524,-26.17681 3.12401,-6.03495 11.98591,-15.17282 20.22438,-20.8542 10.77183,-7.42843 34.63546,-18.84032 37.44146,-17.90498 0.61679,0.20559 -3.26195,3.44586 -8.61942,7.20059 -29.14344,20.4249 -37.28919,31.12055 -33.91294,44.52884 0.62647,2.48793 4.42566,9.74366 8.44265,16.12384 7.74856,12.30702 8.91289,15.62497 7.94953,22.65347 -0.84067,6.1333 -2.98463,9.82792 -9.85489,16.98258 -6.28059,6.54059 -8.25366,7.62611 -7.20658,3.96484 z"
         style="opacity:1;fill:#eb2d2f;fill-opacity:1;stroke-width:0.99009901" />
      <path
         transform="scale(0.26458333)"
         inkscape:connector-curvature="0"
         id="path272"
         d="m 250.00313,570.28543 c 0,-0.41201 0.45966,-2.30558 1.02146,-4.20792 2.78306,-9.42382 1.41098,-14.00992 -8.88074,-29.68334 -7.7642,-11.82422 -9.32169,-16.72505 -8.77058,-27.59767 0.50432,-9.94952 2.18613,-13.90556 9.25325,-21.76589 8.78901,-9.7755 21.99501,-18.45661 39.33672,-25.85845 5.32558,-2.27308 10.38034,-3.99137 11.23278,-3.81842 0.90127,0.18286 -3.9499,4.25086 -11.59176,9.7204 -29.77841,21.31343 -36.18936,32.60004 -27.55709,48.51485 1.9199,3.53961 5.66792,9.92223 8.32893,14.18361 8.48565,13.58901 7.31758,22.49158 -4.57618,34.87769 -5.71655,5.9532 -7.79679,7.45669 -7.79679,5.63514 z"
         style="opacity:1;fill:#eb2d2f;fill-opacity:1;stroke-width:0.99009901" />
      <path
         transform="scale(0.26458333)"
         inkscape:connector-curvature="0"
         id="path274"
         d="m 250.43307,568.31176 c 1.42686,-5.87938 1.72477,-13.05466 0.67367,-16.22567 -0.60687,-1.83083 -4.20571,-8.17638 -7.99743,-14.10121 -8.85663,-13.83914 -10.29019,-18.12712 -9.75828,-29.18838 0.34057,-7.08229 0.90321,-9.45679 3.27013,-13.80093 3.94359,-7.23789 15.30169,-17.70307 26.38,-24.30612 10.14843,-6.04882 27.79283,-13.81895 30.26863,-13.32951 0.92747,0.18335 -2.40742,3.11669 -8.2299,7.23895 -25.61544,18.13551 -34.11103,27.82973 -34.19773,39.02266 -0.0456,5.88423 1.49021,9.51424 9.72814,22.99354 5.77017,9.44143 6.6957,11.62003 7.0567,16.61077 0.31383,4.33878 -0.0875,6.88128 -1.64056,10.39214 -1.98133,4.47913 -13.32095,17.41654 -15.26557,17.41654 -0.53495,0 -0.66044,-1.1873 -0.2878,-2.72278 z"
         style="opacity:1;fill:#eb2d2f;fill-opacity:1;stroke-width:0.99009901" />
      <path
         transform="scale(0.26458333)"
         inkscape:connector-curvature="0"
         id="path276"
         d="m 213.92874,548.09035 c -20.40012,-21.00186 -27.91012,-36.07104 -24.41711,-48.99411 1.20556,-4.46023 6.42499,-12.72845 11.35989,-17.99546 1.7006,-1.81505 12.00834,-10.54519 22.90608,-19.4003 20.98984,-17.05559 30.53841,-26.50185 36.02215,-35.63618 4.53762,-7.55836 7.03369,-17.0555 7.04116,-26.79051 0.006,-7.30117 0.11473,-7.73404 1.35196,-5.363 4.1604,7.97304 4.41114,20.741 0.60659,30.88696 -5.42919,14.47852 -20.42487,32.62184 -39.70564,48.04 -19.11049,15.28198 -27.53891,30.96248 -24.75047,46.04655 1.40149,7.58139 4.99127,14.82744 13.70228,27.65844 4.0401,5.95091 7.06532,11.10014 6.72272,11.44275 -0.3426,0.3426 -5.22043,-4.11021 -10.83961,-9.89514 z"
         style="opacity:1;fill:#eb2d2f;fill-opacity:1;stroke-width:0.99009901" />
      <path
         transform="scale(0.26458333)"
         inkscape:connector-curvature="0"
         id="path278"
         d="m 212.80637,547.02464 c -22.23986,-23.19364 -28.40989,-38.51727 -21.26469,-52.81216 4.11817,-8.23894 10.76213,-15.28295 26.49401,-28.0893 31.00336,-25.23791 38.08976,-32.47165 43.8327,-44.74402 3.42721,-7.32378 4.93304,-14.33117 5.04985,-23.49956 l 0.0834,-6.54803 1.90492,4.1407 c 2.60671,5.66616 3.40726,14.77934 1.94929,22.19006 -3.30824,16.81545 -15.57551,33.19563 -40.77858,54.4506 -16.39241,13.82452 -23.70427,24.06976 -25.58533,35.84971 -1.74547,10.93075 1.77228,20.84573 13.70709,38.63427 3.87838,5.78063 7.05159,10.74785 7.05159,11.03828 0,1.80157 -2.97429,-0.73445 -12.44428,-10.61055 z"
         style="opacity:1;fill:#eb2d2f;fill-opacity:1;stroke-width:0.99009901" />
      <path
         transform="scale(0.26458333)"
         inkscape:connector-curvature="0"
         id="path280"
         d="m 212.93531,547.1978 c -22.19747,-22.97577 -28.54086,-38.68637 -21.39363,-52.98532 4.24157,-8.48581 11.19924,-15.75028 28.64726,-29.91044 19.41732,-15.75838 32.98905,-28.72866 37.8245,-36.14825 5.07148,-7.78178 7.90591,-16.82547 8.69075,-27.72921 l 0.6545,-9.09301 1.96578,4.95049 c 1.49367,3.76155 1.95414,7.2095 1.9173,14.35644 -0.0424,8.21888 -0.42913,10.29469 -3.06458,16.44819 -4.8008,11.2094 -12.37467,21.15232 -25.38219,33.3216 -25.19073,23.56734 -31.0134,29.70829 -34.48385,36.36882 -3.16525,6.07479 -3.35207,6.99081 -3.33176,16.33663 0.0259,11.92584 1.43254,15.50342 12.81738,32.59926 4.09964,6.15615 7.45388,11.47587 7.45388,11.82162 0,1.8748 -2.73631,-0.42192 -12.31534,-10.33682 z"
         style="opacity:1;fill:#eb2d2f;fill-opacity:1;stroke-width:0.99009901" />
      <path
         transform="scale(0.26458333)"
         inkscape:connector-curvature="0"
         id="path282"
         d="m 212.92871,547.19098 c -22.48741,-23.27589 -28.58479,-38.57613 -21.2348,-53.28476 4.20528,-8.4155 11.17645,-15.63475 29.42424,-30.47137 21.43523,-17.42819 35.40801,-31.59576 39.58427,-40.1361 3.71728,-7.60174 6.05264,-17.40737 6.19863,-26.02659 l 0.10062,-5.94059 2.14429,4.45544 c 3.1052,6.45201 2.97521,21.80957 -0.2543,30.0446 -4.2934,10.94788 -12.98866,22.35865 -27.03118,35.47296 -31.76163,29.66218 -36.18303,35.51055 -37.15906,49.15178 -0.8071,11.28025 1.74608,17.93421 13.8489,36.09241 10.30436,15.45993 8.8542,15.62559 -5.62161,0.64222 z"
         style="opacity:1;fill:#eb2d2f;fill-opacity:1;stroke-width:0.99009901" />
      <path
         transform="scale(0.26458333)"
         inkscape:connector-curvature="0"
         id="path284"
         d="m 212.75018,547.02464 c -16.65894,-17.20272 -24.13319,-29.95161 -24.13319,-41.16415 0,-12.90691 7.18465,-22.00913 35.66815,-45.18791 7.33796,-5.97135 17.57443,-15.11459 22.74769,-20.31831 13.42256,-13.50157 18.10293,-23.21917 19.66587,-40.83124 l 0.72694,-8.19146 1.76878,3.96039 c 2.63647,5.90322 3.18061,17.46905 1.18744,25.23979 -3.56918,13.9151 -11.68503,25.1905 -31.49104,43.75068 -25.85556,24.22921 -31.39289,31.03929 -33.503,41.20366 -2.53242,12.1986 0.44089,21.57134 12.90887,40.69248 3.82468,5.86561 6.95396,10.96173 6.95396,11.32471 0,1.90615 -2.69432,-0.35241 -12.50047,-10.47864 z"
         style="opacity:1;fill:#eb2d2f;fill-opacity:1;stroke-width:0.99009901" />
      <path
         transform="scale(0.26458333)"
         inkscape:connector-curvature="0"
         id="path286"
         d="m 212.75018,547.02464 c -17.69792,-18.27562 -24.71621,-30.82483 -23.94856,-42.82179 0.77518,-12.11476 7.14531,-20.1231 33.27925,-41.83767 35.24723,-29.28675 41.6123,-38.07844 44.25917,-61.13262 l 1.13675,-9.90099 1.75099,3.96039 c 2.64137,5.97426 3.18735,18.61385 1.11237,25.75153 -4.3369,14.91844 -9.31945,21.48787 -37.1645,49.00095 -26.66011,26.34226 -28.0824,28.4984 -28.08402,42.57425 -0.001,10.71248 1.9423,15.835 11.9095,31.38953 4.11636,6.42388 7.70413,12.23671 7.97284,12.91741 1.27763,3.2366 -2.33564,0.30994 -12.22379,-9.90099 z"
         style="opacity:1;fill:#eb2d2f;fill-opacity:1;stroke-width:0.99009901" />
      <path
         transform="scale(0.26458333)"
         inkscape:connector-curvature="0"
         id="path288"
         d="m 212.74822,547.02464 c -17.98609,-18.56983 -24.83542,-30.93119 -23.94668,-43.21791 0.84913,-11.73917 7.20239,-19.66055 33.44416,-41.69887 18.72555,-15.72606 31.75112,-28.54524 36.17691,-35.60369 4.10248,-6.54283 6.47336,-14.1568 7.86919,-25.27161 l 1.24339,-9.90099 1.86551,3.96039 c 1.45466,3.08818 1.86769,6.24998 1.87543,14.35644 0.009,9.02486 -0.33525,11.21598 -2.60717,16.61266 -5.43547,12.91137 -8.68498,16.99088 -32.11511,40.31803 -12.58004,12.52475 -24.21514,24.77723 -25.85576,27.22772 -4.20339,6.27831 -5.5948,11.246 -5.55139,19.8198 0.0481,9.49608 2.44525,15.57026 12.00049,30.40799 11.70497,18.1759 10.86351,18.74785 -4.39897,2.99004 z"
         style="opacity:1;fill:#eb2d2f;fill-opacity:1;stroke-width:0.99009901" />
      <path
         transform="scale(0.26458333)"
         inkscape:connector-curvature="0"
         id="path290"
         d="m 212.74822,547.02464 c -18.39438,-18.99136 -24.91466,-30.99384 -23.87478,-43.9485 0.91354,-11.38077 6.80087,-18.56221 34.39702,-41.95792 34.13748,-28.94138 39.93343,-37.0397 42.99409,-60.07305 l 1.29073,-9.7136 1.86654,3.96039 c 2.94544,6.24961 2.62697,23.8702 -0.5637,31.18812 -5.32355,12.20981 -10.74138,18.89731 -34.18489,42.1962 -19.68763,19.56617 -23.49787,23.83689 -26.24468,29.41645 -3.09648,6.28985 -3.19779,6.87962 -2.7861,16.21965 0.38581,8.75309 0.77313,10.36416 3.9964,16.62315 1.96306,3.81188 6.27878,11.1316 9.5905,16.26605 3.31172,5.13444 6.0213,9.70127 6.0213,10.14851 0,2.07137 -2.47545,0.0269 -12.50243,-10.32545 z"
         style="opacity:1;fill:#eb2d2f;fill-opacity:1;stroke-width:0.99009901" />
      <path
         transform="scale(0.26458333)"
         inkscape:connector-curvature="0"
         id="path292"
         d="m 212.46358,546.73282 c -18.24113,-18.82976 -24.52628,-30.3135 -23.60882,-43.13623 0.86791,-12.13009 6.99898,-19.47656 38.58839,-46.23799 30.07829,-25.48127 35.46307,-33.35461 38.77806,-56.69922 l 1.32457,-9.32781 1.87129,3.96039 c 1.49187,3.15739 1.8631,6.16866 1.83091,14.85149 -0.0718,19.38226 -4.34907,26.21686 -37.24912,59.52064 -28.16539,28.51102 -28.94101,29.71936 -28.39636,44.23897 0.40105,10.69133 2.35871,15.53545 13.05933,32.31458 3.62385,5.68237 6.58882,10.69475 6.58882,11.13861 0,2.07112 -2.50722,-0.0119 -12.78707,-10.62343 z"
         style="opacity:1;fill:#eb2d2f;fill-opacity:1;stroke-width:0.99009901" />
      <path
         transform="scale(0.26458333)"
         inkscape:connector-curvature="0"
         id="path294"
         d="m 212.46358,546.73282 c -18.12395,-18.7088 -24.52599,-30.33753 -23.62345,-42.90994 0.88432,-12.31862 5.68896,-18.2262 35.9605,-44.21545 33.29866,-28.58816 38.55601,-36.12796 41.27009,-59.18733 l 1.14444,-9.72334 2.01844,3.78275 c 1.67511,3.13931 2.0217,5.63532 2.03755,14.67384 0.0354,20.17233 -4.14944,27.02527 -36.57931,59.90099 -12.86888,13.0458 -24.22497,25.44212 -25.84995,28.21782 -2.70583,4.62195 -2.89817,5.64043 -2.89817,15.34653 0,12.13831 0.95766,14.73997 11.76029,31.94894 11.06367,17.62484 10.11547,18.01661 -5.24043,2.16519 z"
         style="opacity:1;fill:#eb2d2f;fill-opacity:1;stroke-width:0.99009901" />
      <path
         transform="scale(0.26458333)"
         inkscape:connector-curvature="0"
         id="path296"
         d="m 212.26667,546.52959 c -17.34845,-17.89708 -23.5904,-28.6917 -23.61651,-40.84159 -0.0271,-12.623 5.32216,-19.60829 33.6302,-43.91559 35.59629,-30.56553 40.81334,-37.91081 43.71884,-61.55341 l 1.17906,-9.59417 2.04901,3.81872 c 1.73367,3.23102 2.0477,5.57099 2.04049,15.20485 -0.007,9.92474 -0.32882,12.14967 -2.50406,17.33501 -4.43975,10.58349 -9.91053,17.42395 -31.66743,39.59568 -11.75604,11.9802 -23.19047,24.09801 -25.40985,26.92848 -5.0977,6.50131 -6.72404,12.83528 -5.87491,22.8805 0.74971,8.86902 2.69585,13.41909 12.34777,28.86896 10.70457,17.13487 9.69483,17.35293 -5.89261,1.27256 z"
         style="opacity:1;fill:#eb2d2f;fill-opacity:1;stroke-width:0.99009901" />
      <path
         transform="scale(0.26458333)"
         inkscape:connector-curvature="0"
         id="path298"
         d="m 384.66205,640.54969 -3.04421,-3.67357 2.22104,-1.48515 c 8.56661,-5.72827 12.50147,-12.72454 13.09634,-23.28563 0.21414,-3.80181 0.43509,-26.85051 0.491,-51.21932 l 0.10166,-44.30693 h 6.93069 6.9307 v 50.33769 c 0,54.7713 -0.0902,55.79593 -5.61344,63.76596 -2.85916,4.12578 -10.64255,10.40177 -15.38648,12.40661 -2.47732,1.04694 -2.91655,0.85217 -5.7273,-2.53966 z"
         style="opacity:1;fill:#eb2d2f;fill-opacity:1;stroke-width:0.99009901" />
      <path
         transform="scale(0.26458333)"
         inkscape:connector-curvature="0"
         id="path300"
         d="m 384.71112,640.58963 -3.05995,-3.71224 2.74034,-1.94805 c 4.87306,-3.46416 9.05052,-8.63447 10.74481,-13.29852 1.43847,-3.95984 1.71907,-11.13818 2.14229,-54.8042 l 0.48702,-50.24753 h 6.81182 6.81182 v 50.31535 c 0,56.03321 -0.0427,56.45684 -6.55132,64.9809 -3.1094,4.07226 -14.06937,12.42652 -16.30238,12.42652 -0.42048,0 -2.14149,-1.6705 -3.82445,-3.71223 z"
         style="opacity:1;fill:#eb2d2f;fill-opacity:1;stroke-width:0.99009901" />
      <path
         transform="scale(0.26458333)"
         inkscape:connector-curvature="0"
         id="path302"
         d="m 384.67613,640.7075 -3.15589,-3.59437 5.06792,-4.4333 c 9.05719,-7.92301 9.28499,-8.79103 10.07174,-38.37797 0.37649,-14.15841 0.7258,-37.43812 0.77625,-51.73267 l 0.0917,-25.9901 h 6.97147 6.97146 l -0.2883,52.72277 -0.28829,52.72278 -2.67591,5.07262 c -2.88964,5.47779 -9.95894,12.31381 -15.849,15.326 -2.02039,1.03324 -3.8678,1.8786 -4.10536,1.8786 -0.23756,0 -1.85208,-1.61746 -3.58782,-3.59436 z"
         style="opacity:1;fill:#eb2d2f;fill-opacity:1;stroke-width:0.99009901" />
      <path
         transform="scale(0.26458333)"
         inkscape:connector-curvature="0"
         id="path304"
         d="m 384.65501,640.83488 -3.36033,-3.46698 5.52351,-4.92302 c 8.98668,-8.0097 8.96919,-7.92396 9.80252,-48.04401 0.39588,-19.0594 0.76194,-42.11633 0.81348,-51.23762 l 0.0937,-16.58416 h 6.96376 6.96376 l -0.28059,52.72277 -0.28059,52.72278 -2.4301,4.75678 c -2.82524,5.53025 -9.89445,12.48321 -15.70666,15.44837 -2.23387,1.13965 -4.2147,2.07207 -4.40185,2.07207 -0.18715,0 -1.85242,-1.56014 -3.7006,-3.46698 z"
         style="opacity:1;fill:#eb2d2f;fill-opacity:1;stroke-width:0.99009901" />
      <path
         transform="scale(0.26458333)"
         inkscape:connector-curvature="0"
         id="path306"
         d="m 384.69593,640.8771 -3.3194,-3.42475 5.99121,-5.7721 c 3.94783,-3.80345 6.40271,-7.10971 7.19776,-9.69405 1.03938,-3.37855 2.44748,-50.66398 2.8809,-96.74374 l 0.0815,-8.66337 h 6.93069 6.9307 v 51.30877 c 0,58.13225 0.14484,56.89347 -7.66844,65.58372 -3.72706,4.14538 -13.02714,10.7849 -15.15714,10.821 -0.30159,0.005 -2.04208,-1.53186 -3.86776,-3.41548 z"
         style="opacity:1;fill:#eb2d2f;fill-opacity:1;stroke-width:0.99009901" />
      <path
         transform="scale(0.26458333)"
         inkscape:connector-curvature="0"
         id="path308"
         d="m 384.6226,640.80145 -3.39273,-3.50042 5.02682,-4.6679 c 2.76475,-2.56735 5.79673,-5.86569 6.73774,-7.32965 2.34857,-3.65375 3.47515,-20.60975 3.51303,-52.8739 0.0167,-14.20797 0.32266,-32.58669 0.67996,-40.84158 l 0.64963,-15.00891 h 6.8089 6.80891 l -0.28032,53.21782 -0.28032,53.21782 -2.64148,4.45545 c -3.84837,6.49115 -15.62932,16.83168 -19.17631,16.83168 -0.5836,0 -2.58782,-1.57518 -4.45383,-3.50041 z"
         style="opacity:1;fill:#eb2d2f;fill-opacity:1;stroke-width:0.99009901" />
      <path
         transform="scale(0.26458333)"
         inkscape:connector-curvature="0"
         id="path310"
         d="m 384.64556,640.82513 -3.36979,-3.47673 5.53822,-5.68169 c 3.04602,-3.12493 6.07835,-6.73694 6.73852,-8.02671 1.84461,-3.60379 2.90748,-24.31555 2.95361,-57.55596 0.0231,-16.60891 0.32957,-34.54208 0.68116,-39.85148 l 0.63926,-9.65347 h 6.78136 6.78137 l -0.0217,52.22772 c -0.0245,58.92949 0.32387,56.06353 -7.89997,64.98533 -3.96638,4.30302 -12.52695,10.50972 -14.49549,10.50972 -0.5262,0 -2.47312,-1.56453 -4.3265,-3.47673 z"
         style="opacity:1;fill:#eb2d2f;fill-opacity:1;stroke-width:0.99009901" />
      <path
         transform="scale(0.26458333)"
         inkscape:connector-curvature="0"
         id="path312"
         d="m 384.64556,640.82513 -3.36979,-3.47673 5.53822,-5.68169 c 3.04602,-3.12493 6.07223,-6.72551 6.72493,-8.00131 1.75469,-3.42984 2.9288,-28.3168 2.97345,-63.0269 0.0217,-16.88119 0.32352,-33.7005 0.67067,-37.37624 l 0.63119,-6.68317 h 6.78752 6.78752 l -0.01,52.22772 -0.01,52.22773 -2.34943,4.95049 c -3.16532,6.66977 -15.78879,18.31683 -19.85233,18.31683 -0.63402,0 -2.66916,-1.56453 -4.52254,-3.47673 z"
         style="opacity:1;fill:#eb2d2f;fill-opacity:1;stroke-width:0.99009901" />
      <path
         transform="scale(0.26458333)"
         inkscape:connector-curvature="0"
         id="path314"
         d="m 384.67852,640.85914 -3.33681,-3.44272 5.61212,-5.88372 c 3.08666,-3.23604 6.09115,-7.14367 6.67663,-8.68361 1.65088,-4.34213 2.83178,-31.39793 2.87133,-65.78528 0.0198,-17.2136 0.31933,-33.36458 0.66562,-35.89108 l 0.62963,-4.59364 h 6.79611 6.79612 v 52.50816 52.50817 l -2.36752,4.67207 c -3.47636,6.86025 -15.96836,18.03437 -20.16137,18.03437 -0.46477,0 -2.34661,-1.54922 -4.18186,-3.44272 z"
         style="opacity:1;fill:#eb2d2f;fill-opacity:1;stroke-width:0.99009901" />
      <path
         transform="scale(0.26458333)"
         inkscape:connector-curvature="0"
         id="path316"
         d="m 384.70139,640.88273 -3.31396,-3.41913 5.67297,-6.12748 c 3.12013,-3.37012 6.11111,-7.2799 6.64663,-8.68841 1.48101,-3.89534 2.76191,-35.73643 2.79821,-69.55872 0.0179,-16.67698 0.31101,-31.71411 0.65135,-33.41584 l 0.61882,-3.09406 h 6.80693 6.80693 v 52.50816 52.50817 l -2.36752,4.67207 c -3.47636,6.86025 -15.96836,18.03437 -20.16137,18.03437 -0.46477,0 -2.33632,-1.53861 -4.15899,-3.41913 z"
         style="opacity:1;fill:#eb2d2f;fill-opacity:1;stroke-width:0.99009901" />
      <path
         transform="scale(0.26458333)"
         inkscape:connector-curvature="0"
         id="path318"
         d="m 384.70543,640.88689 -3.30992,-3.41496 5.24958,-5.74345 c 2.88727,-3.15889 5.86783,-7.22285 6.62347,-9.03102 1.80527,-4.31982 3.20546,-35.68368 3.25675,-72.95005 0.0217,-15.79208 0.30816,-29.71535 0.63652,-30.9406 0.5458,-2.03665 1.18155,-2.22772 7.41222,-2.22772 h 6.81522 v 52.50816 52.50817 l -2.39363,4.67005 c -3.40697,6.64714 -15.78023,18.03639 -19.59469,18.03639 -0.76209,0 -2.87507,-1.53673 -4.69552,-3.41497 z"
         style="opacity:1;fill:#eb2d2f;fill-opacity:1;stroke-width:0.99009901" />
      <path
         transform="scale(0.26458333)"
         inkscape:connector-curvature="0"
         id="path320"
         d="m 384.71652,640.89834 -3.29882,-3.40352 5.19542,-5.7549 c 2.85749,-3.16519 5.8178,-7.19779 6.57848,-8.96133 1.76037,-4.08122 3.29767,-39.28961 3.32572,-76.16803 0.0113,-14.79457 0.2909,-27.60397 0.62144,-28.46534 0.46759,-1.21851 2.11581,-1.56613 7.42574,-1.56613 h 6.82477 v 52.50816 52.50817 l -2.39363,4.67005 c -3.40697,6.64714 -15.78023,18.03639 -19.59469,18.03639 -0.76209,0 -2.87008,-1.53158 -4.68443,-3.40352 z"
         style="opacity:1;fill:#eb2d2f;fill-opacity:1;stroke-width:0.99009901" />
      <path
         transform="scale(0.26458333)"
         inkscape:connector-curvature="0"
         id="path322"
         d="m 437.88341,617.15044 c -5.85857,-2.09094 -8.29287,-4.11273 -10.53939,-8.75341 -4.12376,-8.51856 -1.79318,-20.23811 5.19679,-26.13257 6.06444,-5.11398 16.69067,-8.16961 28.60093,-8.22436 l 7.67327,-0.0353 v -6.48481 c 0,-7.82028 -1.69049,-11.49413 -6.29414,-13.67871 -4.4249,-2.09975 -16.67428,-2.13516 -24.63928,-0.0712 -3.28445,0.85109 -6.30924,1.18525 -6.72177,0.74258 -0.41253,-0.44267 -1.03466,-2.15951 -1.38251,-3.81519 -0.60443,-2.87694 -0.42259,-3.08276 4.10361,-4.64477 7.91138,-2.73026 15.18702,-3.73571 24.53805,-3.39102 13.56707,0.50009 20.49465,4.8437 23.29432,14.6056 0.52971,1.84698 0.96311,15.94772 0.96311,31.33498 v 27.97683 h -5.44555 c -5.40307,0 -5.44554,-0.0234 -5.44554,-3.00137 0,-4.24429 -2.12507,-4.55402 -7.00273,-1.02066 -7.63989,5.5343 -18.88333,7.45427 -26.89917,4.59338 z m 25.03481,-11.71749 5.40174,-3.22534 0.28345,-10.25759 0.28345,-10.25759 -9.68939,0.42286 c -10.23106,0.4465 -16.38838,2.56572 -18.72191,6.44366 -3.34026,5.55098 -2.21536,14.54636 2.25922,18.06606 1.97194,1.55113 4.03103,2.03329 8.68329,2.03329 5.11763,0 6.96713,-0.51871 11.50015,-3.22535 z"
         style="opacity:1;fill:#eb2d2f;fill-opacity:1;stroke-width:0.99009901" />
      <path
         transform="scale(0.26458333)"
         inkscape:connector-curvature="0"
         id="path324"
         d="m 435.08166,615.83652 c -4.20882,-2.13181 -5.85908,-3.68162 -7.60328,-7.14049 -4.73423,-9.38827 -1.97241,-21.09884 6.47933,-27.47336 5.83323,-4.39957 12.7285,-6.33308 24.81022,-6.95705 l 10.24995,-0.52938 -0.36821,-7.29165 c -0.33523,-6.6386 -0.64986,-7.57331 -3.51296,-10.43642 -2.93079,-2.93079 -3.70417,-3.17304 -11.36689,-3.56063 -5.46495,-0.27642 -10.52103,0.12279 -15.07761,1.19048 -3.77051,0.8835 -7.17654,1.26063 -7.56896,0.83807 -0.39241,-0.42256 -1.0048,-2.15349 -1.36085,-3.84651 -0.64706,-3.07675 -0.6439,-3.07936 6.57886,-5.44555 5.99322,-1.96338 9.25351,-2.36732 19.10741,-2.36732 10.68357,0 12.36396,0.2466 16.67056,2.44638 3.36571,1.71917 5.57305,3.77936 7.42575,6.93069 l 2.63637,4.48432 0.30105,29.9505 0.30105,29.95049 h -5.49907 c -5.03818,0 -5.50034,-0.18671 -5.51423,-2.22772 -0.0332,-4.87661 -1.43699,-5.24825 -6.80728,-1.80214 -10.36009,6.64805 -20.9467,7.8127 -29.88121,3.28729 z m 28.43056,-10.72357 4.80774,-2.9698 0.28367,-10.24556 0.28367,-10.24556 -9.32711,0.48786 c -11.15452,0.58346 -17.56217,3.12946 -19.47039,7.73632 -2.64043,6.37456 -0.37025,15.85099 4.2721,17.83306 1.19674,0.51095 4.91339,0.80401 8.25923,0.65124 4.71785,-0.21542 7.16251,-0.94438 10.89109,-3.24756 z"
         style="opacity:1;fill:#eb2d2f;fill-opacity:1;stroke-width:0.99009901" />
      <path
         transform="scale(0.26458333)"
         inkscape:connector-curvature="0"
         id="path326"
         d="m 435.15164,615.90496 c -6.76134,-3.46565 -9.90099,-8.82288 -9.90099,-16.89419 0,-15.51174 10.74074,-23.45856 33.66337,-24.90675 l 9.40594,-0.59424 0.29632,-5.11303 c 0.35648,-6.15112 -1.63467,-11.42312 -5.19551,-13.75628 -3.81319,-2.49849 -14.45902,-2.96158 -23.77818,-1.03434 -4.30414,0.89012 -8.1809,1.26321 -8.61501,0.82909 -0.43412,-0.43411 -1.06951,-2.19033 -1.41198,-3.90271 -0.62107,-3.10535 -0.60511,-3.11901 6.16955,-5.27882 9.41636,-3.00199 24.80636,-3.7362 32.34968,-1.54329 6.71487,1.95206 11.6231,6.42676 13.34183,12.16336 0.81842,2.73166 1.19974,13.01507 1.19974,32.35486 v 28.35047 h -5.44555 c -5.1134,0 -5.44554,-0.14741 -5.44554,-2.41681 0,-1.32925 -0.47642,-2.71126 -1.05871,-3.07114 -0.58229,-0.35987 -4.42866,1.05619 -8.5475,3.1468 -6.19201,3.1429 -8.70899,3.85801 -14.53535,4.12967 -6.1538,0.28694 -7.73649,-0.0251 -12.49211,-2.46265 z m 25.8564,-9.5863 c 7.21466,-3.46604 7.80697,-4.60602 7.80697,-15.02566 v -9.36737 h -5.11692 c -2.8143,0 -8.0474,0.51032 -11.62909,1.13404 -5.18792,0.90344 -7.16746,1.78933 -9.73457,4.35644 -2.84734,2.84733 -3.21831,3.83891 -3.18731,8.51942 0.0623,9.39906 3.76582,12.98665 12.83621,12.43425 2.99505,-0.1824 7.05617,-1.10541 9.02471,-2.05112 z"
         style="opacity:1;fill:#eb2d2f;fill-opacity:1;stroke-width:0.99009901" />
      <path
         transform="scale(0.26458333)"
         inkscape:connector-curvature="0"
         id="path328"
         d="m 437.62689,617.40903 c -8.32168,-3.11622 -12.3894,-9.16281 -12.35449,-18.36475 0.0558,-14.71691 11.1629,-23.66357 30.67132,-24.70549 13.12147,-0.7008 12.88053,-0.58713 12.81541,-6.04589 -0.0739,-6.19514 -1.85289,-11.00961 -4.90323,-13.26968 -3.77406,-2.7963 -13.8409,-3.38355 -23.71262,-1.38329 -4.53262,0.91843 -8.6155,1.2955 -9.07306,0.83793 -0.45757,-0.45757 -1.11315,-2.238 -1.45686,-3.95651 l -0.62491,-3.12458 7.28952,-2.29003 c 6.0021,-1.88558 9.48903,-2.29003 19.7434,-2.29003 12.1118,0 12.58561,0.0816 17.24986,2.9703 3.14988,1.95082 5.58697,4.46801 7.10057,7.33395 2.26376,4.28633 2.3046,4.88716 2.3046,33.91089 v 29.54724 h -5.44555 c -5.1134,0 -5.44554,-0.14741 -5.44554,-2.41681 0,-1.32925 -0.4271,-2.68078 -0.9491,-3.00339 -0.52201,-0.32262 -4.19775,1.05965 -8.16832,3.07171 -6.05991,3.07082 -8.41169,3.70907 -14.64496,3.97451 -4.08416,0.17391 -8.76237,-0.18432 -10.39604,-0.79608 z m 24.06566,-11.6232 c 6.19882,-3.1624 7.12246,-5.14883 7.12246,-15.31788 v -8.83884 l -9.14022,0.64879 c -10.30545,0.7315 -17.23208,3.43839 -19.36698,7.56852 -0.74706,1.44523 -1.1257,4.63189 -0.90992,7.65792 0.3811,5.3443 2.32841,8.59862 6.14979,10.27741 3.06223,1.34528 11.68514,0.27927 16.14487,-1.99592 z"
         style="opacity:1;fill:#eb2d2f;fill-opacity:1;stroke-width:0.99009901" />
      <path
         transform="scale(0.26458333)"
         inkscape:connector-curvature="0"
         id="path330"
         d="m 436.81878,617.18424 c -2.07813,-0.77383 -4.68742,-2.22904 -5.79843,-3.23378 -7.70669,-6.9696 -7.71883,-22.27236 -0.0241,-30.38448 5.41368,-5.70735 16.46058,-9.56115 27.407,-9.56115 2.9328,0 6.5363,-0.45773 8.00778,-1.01719 2.55571,-0.97168 2.65091,-1.25466 2.12769,-6.32424 -0.67917,-6.58052 -2.74898,-10.72652 -6.1223,-12.26351 -4.78098,-2.17836 -12.57696,-2.45288 -21.60462,-0.76076 -4.78295,0.8965 -9.09273,1.38498 -9.57729,1.08551 -1.66583,-1.02954 -2.32868,-6.65045 -0.89167,-7.56124 4.49338,-2.84792 12.84039,-4.27691 25.18119,-4.31096 12.68714,-0.035 13.04282,0.0238 17.74491,2.93457 3.15317,1.95192 5.58841,4.46639 7.10286,7.33395 2.26376,4.28633 2.3046,4.88716 2.3046,33.91089 v 29.54724 h -5.44555 c -4.52039,0 -5.44812,-0.29437 -5.4607,-1.73267 -0.0366,-4.18707 -1.38449,-4.27705 -8.9472,-0.59732 -6.00482,2.92173 -8.75329,3.65807 -14.80002,3.96509 -4.85017,0.24625 -8.73626,-0.11097 -11.20415,-1.02995 z M 457.728,607.13961 c 2.81269,-0.83528 6.32337,-2.55897 7.80153,-3.83042 2.50795,-2.15725 2.71541,-2.94895 3.10461,-11.84765 l 0.41707,-9.53591 -4.32602,0.008 c -7.1187,0.0123 -16.94274,1.95984 -20.27513,4.01937 -3.96002,2.44743 -5.75223,6.71007 -5.04334,11.99523 1.25525,9.35862 7.39211,12.43752 18.32128,9.19191 z"
         style="opacity:1;fill:#eb2d2f;fill-opacity:1;stroke-width:0.99009901" />
      <path
         transform="scale(0.26458333)"
         inkscape:connector-curvature="0"
         id="path334"
         d="m 435.53176,616.72565 c -6.32867,-2.96797 -9.62695,-8.0326 -10.10333,-15.51401 -0.475,-7.45971 0.97111,-12.3297 5.03593,-16.95927 5.65873,-6.44494 11.02372,-8.28907 31.91501,-10.97027 l 5.94059,-0.76241 -0.13817,-5.22401 c -0.29756,-11.2507 -4.00116,-14.45032 -16.69351,-14.42189 -4.35644,0.01 -10.56452,0.58415 -13.79573,1.27641 -5.36727,1.14989 -5.98757,1.10464 -7.17822,-0.52368 -2.4853,-3.39885 -1.61231,-6.0157 2.56434,-7.68687 6.35931,-2.54448 16.50268,-3.87263 26.30278,-3.44401 8.11081,0.35474 9.79944,0.75796 13.9565,3.33262 3.08515,1.91078 5.53044,4.44605 7.03385,7.2927 2.26376,4.28633 2.3046,4.88716 2.3046,33.91089 v 29.54724 h -5.44555 c -4.81352,0 -5.44554,-0.23343 -5.44554,-2.01127 0,-3.41547 -2.89126,-3.40532 -9.77501,0.0343 -8.50362,4.24903 -19.98319,5.16967 -26.47854,2.12352 z m 26.02491,-11.15494 c 2.27029,-1.07909 4.67199,-2.61769 5.33711,-3.41911 0.67424,-0.81241 1.43015,-5.679 1.70841,-10.99894 l 0.4991,-9.5418 -7.57861,0.64063 c -4.16824,0.35234 -9.56868,1.14173 -12.00098,1.75419 -8.34281,2.10074 -11.91104,8.61968 -9.27614,16.94692 2.44003,7.71138 10.93173,9.55153 21.31111,4.61811 z"
         style="opacity:1;fill:#eb2d2f;fill-opacity:1;stroke-width:0.99009901" />
      <path
         transform="scale(0.26458333)"
         inkscape:connector-curvature="0"
         id="path336"
         d="m 435.64669,616.7485 c -7.58427,-3.6163 -10.39604,-8.5104 -10.39604,-18.09509 0,-7.22252 2.31061,-12.19102 7.89067,-16.96735 5.09008,-4.35692 11.76418,-6.49544 24.25553,-7.77198 5.46316,-0.5583 10.28002,-1.35834 10.70415,-1.77786 0.42413,-0.41953 0.46364,-3.40091 0.0878,-6.6253 -0.5587,-4.79316 -1.26825,-6.44947 -3.88995,-9.08034 -2.69307,-2.70248 -3.97566,-3.23319 -8.00859,-3.31376 -7.89181,-0.15766 -12.40244,0.13654 -18.61799,1.21433 -5.21928,0.90504 -6.04232,0.82107 -7.17822,-0.73236 -0.70565,-0.96503 -1.283,-2.73494 -1.283,-3.93311 0,-4.32632 14.263,-7.7968 29.52416,-7.18383 8.81464,0.35404 10.33111,0.70083 14.58475,3.33529 3.1026,1.92157 5.54566,4.45192 7.05184,7.30382 2.26376,4.28633 2.3046,4.88716 2.3046,33.91089 v 29.54724 h -5.44555 c -4.81352,0 -5.44554,-0.23343 -5.44554,-2.01127 0,-3.23526 -2.12905,-3.19886 -9.45276,0.16159 -8.93554,4.10003 -20.48839,4.97414 -26.68586,2.01909 z m 26.3616,-11.65193 c 2.51868,-1.25785 4.89048,-3.08738 5.27068,-4.06561 0.3802,-0.97823 0.95169,-5.74495 1.26998,-10.5927 l 0.5787,-8.8141 -7.82959,0.69243 c -4.30627,0.38084 -9.48012,1.1287 -11.49744,1.66192 -7.6005,2.00898 -11.51452,7.88417 -10.13856,15.21863 1.697,9.04579 11.08391,11.52395 22.34623,5.89943 z"
         style="opacity:1;fill:#eb2d2f;fill-opacity:1;stroke-width:0.99009901" />
      <path
         transform="scale(0.26458333)"
         inkscape:connector-curvature="0"
         id="path338"
         d="m 435.64669,616.7485 c -7.58427,-3.6163 -10.39604,-8.5104 -10.39604,-18.09509 0,-7.03004 2.23784,-12.03992 7.40427,-16.57612 5.80753,-5.09907 12.72823,-7.23229 27.9217,-8.60653 3.90949,-0.35361 7.30428,-1.1578 7.544,-1.7871 0.23971,-0.62929 0.077,-3.77875 -0.3615,-6.99878 -1.20975,-8.88275 -3.66354,-10.86198 -14.05121,-11.3337 -4.47956,-0.20343 -11.23321,0.18208 -15.00812,0.8567 -6.30752,1.12721 -6.9698,1.08116 -8.17611,-0.56857 -2.13868,-2.92482 -1.59721,-5.91964 1.30977,-7.24414 5.4042,-2.46232 15.0178,-4.04439 24.60532,-4.0492 12.41959,-0.006 18.60641,2.41517 22.95607,8.98454 l 2.78651,4.20849 0.28805,30.52005 0.28804,30.52004 h -5.48606 c -3.72071,0 -5.49095,-0.39825 -5.50123,-1.23762 -0.0468,-3.81611 -1.62721,-3.93301 -9.01192,-0.66657 -9.4226,4.16785 -20.88133,5.04426 -27.11154,2.0736 z m 25.95427,-11.59978 c 2.78077,-1.38572 5.30224,-3.16132 5.60327,-3.9458 0.30103,-0.78447 0.85539,-5.50713 1.23191,-10.4948 l 0.68458,-9.06848 -7.33107,0.68254 c -9.21691,0.85812 -16.90698,2.99674 -18.96908,5.27532 -4.32323,4.77712 -4.33667,12.05501 -0.0317,17.17117 2.17354,2.58311 3.05727,2.89953 8.09797,2.89953 4.07724,0 7.07085,-0.70396 10.71412,-2.51948 z"
         style="opacity:1;fill:#eb2d2f;fill-opacity:1;stroke-width:0.99009901" />
      <path
         transform="scale(0.26458333)"
         inkscape:connector-curvature="0"
         id="path340"
         d="m 516.33976,616.20846 c 0,-0.20385 -2.47295,-8.33504 -5.49544,-18.06931 -11.36655,-36.60723 -16.28674,-52.88548 -16.28674,-53.88402 0,-0.6454 2.67887,-0.92147 7.17287,-0.73922 l 7.17286,0.2909 5.762,18.31684 c 3.16909,10.07425 7.04884,23.15952 8.62167,29.07836 3.03916,11.43697 3.47051,12.4096 4.85831,10.95464 1.93036,-2.02378 9.25145,-27.58093 12.24657,-42.75149 l 3.17563,-16.08483 6.80971,-0.004 6.80971,-0.004 -0.66296,4.14594 c -2.24603,14.04586 -10.82864,42.99377 -17.63133,59.46793 l -3.98621,9.65346 h -9.28332 c -5.10583,0 -9.28333,-0.16678 -9.28333,-0.37063 z"
         style="opacity:1;fill:#eb2d2f;fill-opacity:1;stroke-width:0.99009901" />
      <path
         transform="scale(0.26458333)"
         inkscape:connector-curvature="0"
         id="path342"
         d="M 512.48365,603.95533 C 501.45037,568.616 494.55758,545.8027 494.55758,544.62476 c 0,-0.97078 1.88531,-1.313 7.23344,-1.313 h 7.23344 l 7.57513,25 c 4.16632,13.75 8.09288,27.11634 8.72568,29.70297 0.63281,2.58664 1.4717,4.70297 1.8642,4.70297 2.03588,0 9.48925,-25.06938 13.46725,-45.29702 l 2.77467,-14.10892 h 7.1483 7.14829 l -1.84493,8.44254 c -4.55608,20.84895 -10.24314,39.18963 -17.72147,57.15152 l -3.19472,7.67327 h -9.27097 -9.27097 z"
         style="opacity:1;fill:#eb2d2f;fill-opacity:1;stroke-width:0.99009901" />
      <path
         transform="scale(0.26458333)"
         inkscape:connector-curvature="0"
         id="path344"
         d="m 515.84542,615.34147 c -2.6217,-7.5074 -21.28784,-69.29379 -21.28784,-70.46441 0,-1.28468 1.30152,-1.5653 7.25995,-1.5653 h 7.25995 l 7.55942,25 c 4.15769,13.75 8.03153,26.87476 8.60855,29.16612 0.57701,2.29137 1.45687,4.41812 1.95523,4.72613 0.9657,0.59683 6.48095,-15.57022 9.7888,-28.69423 1.65824,-6.57916 6.08296,-28.22151 6.08296,-29.75323 0,-0.24463 3.29528,-0.44479 7.32286,-0.44479 h 7.32286 l -2.31276,10.64357 c -4.15664,19.12938 -11.41461,42.01498 -18.68309,58.91089 l -1.59724,3.71287 h -9.42373 c -6.64841,0 -9.55101,-0.36448 -9.85592,-1.23762 z"
         style="opacity:1;fill:#eb2d2f;fill-opacity:1;stroke-width:0.99009901" />
      <path
         transform="scale(0.26458333)"
         inkscape:connector-curvature="0"
         id="path346"
         d="m 516.05865,615.8714 c -0.95441,-1.68218 -21.50107,-69.52422 -21.50107,-70.99336 0,-1.28629 1.30137,-1.56628 7.27993,-1.56628 h 7.27992 l 6.99879,23.01981 c 3.84933,12.66089 7.76079,25.80445 8.69213,29.20792 0.93134,3.40346 2.04817,6.18812 2.48183,6.18812 1.92543,0 11.07912,-32.47796 14.85955,-52.72278 l 1.0631,-5.69307 h 7.37441 c 7.13189,0 7.35838,0.0733 6.88699,2.22773 -4.82258,22.04121 -12.22123,46.82887 -18.69201,62.62376 l -3.24496,7.92079 -9.51875,0.28241 c -5.23532,0.15533 -9.71725,-0.0674 -9.95986,-0.49505 z"
         style="opacity:1;fill:#eb2d2f;fill-opacity:1;stroke-width:0.99009901" />
      <path
         transform="scale(0.26458333)"
         inkscape:connector-curvature="0"
         id="path348"
         d="m 516.00174,615.83652 c -0.91961,-1.50119 -21.44416,-69.39073 -21.44416,-70.93135 0,-1.32194 1.25717,-1.59341 7.37921,-1.59341 h 7.3792 l 0.92175,3.21783 c 0.50696,1.7698 3.84235,12.82611 7.41197,24.56957 3.56962,11.74346 7.0158,23.43901 7.65817,25.9901 0.64238,2.55109 1.52386,4.63835 1.95886,4.63835 0.86008,0 5.58372,-13.88234 8.75923,-25.74258 1.70159,-6.35529 7.04647,-30.77501 7.04647,-32.19398 0,-0.26361 3.35007,-0.47929 7.4446,-0.47929 7.19691,0 7.42926,0.0741 6.98344,2.22773 -4.20406,20.30815 -13.72963,51.76989 -19.78477,65.34653 l -2.5391,5.69307 h -9.35999 c -5.14799,0 -9.56469,-0.33416 -9.81488,-0.74257 z"
         style="opacity:1;fill:#eb2d2f;fill-opacity:1;stroke-width:0.99009901" />
      <path
         transform="scale(0.26458333)"
         inkscape:connector-curvature="0"
         id="path350"
         d="m 515.29691,613.96509 c -2.17971,-5.73306 -20.73933,-67.50323 -20.73933,-69.02467 0,-1.36519 1.18881,-1.62866 7.34886,-1.62866 h 7.34886 l 2.97778,9.65347 c 7.57365,24.55254 13.01757,43.02141 13.01757,44.16295 0,0.68786 0.5994,2.07037 1.33199,3.07225 1.19128,1.62917 1.70294,0.6817 4.84364,-8.96918 2.80468,-8.61837 8.57573,-32.06326 11.2472,-45.69176 0.40631,-2.0728 0.95181,-2.22773 7.84356,-2.22773 4.07379,0 7.40688,0.31802 7.40688,0.70671 0,0.3887 -1.76619,7.85656 -3.92488,16.59525 -4.00053,16.19478 -11.69279,40.03393 -16.22385,50.27946 l -2.51458,5.68591 h -9.48493 c -9.34049,0 -9.50006,-0.0398 -10.47877,-2.614 z"
         style="opacity:1;fill:#eb2d2f;fill-opacity:1;stroke-width:0.99009901" />
      <path
         transform="scale(0.26458333)"
         inkscape:connector-curvature="0"
         id="path352"
         d="m 515.24854,613.85632 c -2.30091,-6.01115 -20.69096,-67.14836 -20.69096,-68.78655 0,-1.52651 0.9706,-1.75801 7.37073,-1.75801 h 7.37072 l 3.46667,11.13862 c 1.90666,6.12624 5.8023,19.04703 8.65696,28.71287 2.85467,9.66584 5.49157,17.57426 5.85979,17.57426 1.62387,0 8.36825,-22.53596 12.29682,-41.08911 1.38369,-6.53466 2.74419,-12.88367 3.02335,-14.10891 0.47081,-2.06648 1.04366,-2.22773 7.91442,-2.22773 4.07379,0 7.40688,0.40656 7.40688,0.90345 0,0.4969 -1.79152,8.03906 -3.98115,16.76035 -4.09613,16.31483 -11.72874,39.88061 -16.16758,49.91762 l -2.51458,5.68591 h -9.48493 c -9.43447,0 -9.49047,-0.0145 -10.52714,-2.72277 z"
         style="opacity:1;fill:#eb2d2f;fill-opacity:1;stroke-width:0.99009901" />
      <path
         transform="scale(0.26458333)"
         inkscape:connector-curvature="0"
         id="path354"
         d="m 577.80514,616.67385 c -8.63426,-3.50169 -12.83178,-12.03436 -10.91556,-22.18901 1.23024,-6.51949 3.60099,-10.18294 8.8367,-13.65509 5.96941,-3.95872 13.34406,-5.9588 24.70901,-6.70132 l 9.46883,-0.61865 v -7.16025 c 0,-6.76586 -0.1782,-7.33849 -3.23518,-10.39604 l -3.23517,-3.23579 -10.13116,0.0204 c -10.31314,0.0208 -16.05192,0.61983 -17.23078,1.79869 -0.36089,0.36089 -1.4173,0.65616 -2.34758,0.65616 -1.46854,0 -2.92904,-3.47645 -2.92904,-6.97204 0,-0.43116 3.2302,-1.81765 7.17822,-3.08108 5.84844,-1.87159 9.37922,-2.29955 19.0594,-2.31013 10.84851,-0.0119 12.26512,0.20216 16.29832,2.46226 4.86862,2.72825 8.39864,7.26548 9.92343,12.75482 0.55587,2.00115 0.99737,15.70672 1.00045,31.05706 l 0.006,27.47525 h -5.33536 c -5.31365,0 -5.338,-0.0141 -5.98546,-3.46535 -0.35756,-1.90594 -1.07932,-3.46534 -1.60391,-3.46534 -0.52459,0 -2.77089,1.31628 -4.99176,2.92508 -7.93646,5.74913 -20.1475,7.50357 -28.53893,4.10037 z m 22.38106,-9.06098 c 1.53297,-0.57499 4.45802,-2.19499 6.5001,-3.6 l 3.71287,-2.55457 v -9.88149 -9.8815 l -9.65347,0.41408 c -15.8208,0.67861 -21.53864,4.97048 -20.75194,15.57662 0.33496,4.5159 0.89424,5.80783 3.53608,8.16832 2.62737,2.34755 4.01156,2.80397 8.50366,2.80397 2.95101,0 6.61972,-0.47045 8.1527,-1.04543 z"
         style="opacity:1;fill:#eb2d2f;fill-opacity:1;stroke-width:0.99009901" />
      <path
         transform="scale(0.26458333)"
         inkscape:connector-curvature="0"
         id="path356"
         d="m 578.35685,617.10898 c -8.82429,-3.14577 -13.69366,-12.61742 -11.57217,-22.5096 1.4733,-6.86978 4.33855,-11.21218 9.32716,-14.1357 6.97604,-4.08823 12.54331,-5.5834 23.39624,-6.28338 l 10.39604,-0.67052 -0.0739,-6.59201 c -0.0867,-7.72935 -1.88743,-11.19746 -6.90197,-13.29267 -4.39811,-1.83764 -13.55736,-1.77991 -22.87238,0.14415 -4.11816,0.85063 -7.68279,1.35138 -7.92139,1.11278 -0.2386,-0.2386 -0.69112,-2.01934 -1.00559,-3.95719 l -0.57176,-3.52336 7.29727,-2.29238 c 5.93262,-1.86369 9.51917,-2.29239 19.17846,-2.29239 10.8353,0 12.27003,0.2179 16.29832,2.47525 4.86862,2.72825 8.39864,7.26548 9.92343,12.75482 0.55587,2.00115 0.99737,15.70672 1.00045,31.05706 l 0.006,27.47525 h -5.40069 c -5.38831,0 -5.40216,-0.008 -6.05078,-3.46535 -0.35755,-1.90594 -0.93467,-3.46343 -1.28249,-3.4611 -0.34781,0.002 -2.63733,1.34596 -5.08783,2.98585 -8.36506,5.59797 -19.80885,7.41975 -28.08192,4.47049 z m 26.90053,-12.28832 5.14179,-3.29948 v -9.93269 -9.93268 l -9.32931,0.48798 c -12.30983,0.64389 -18.23727,3.34377 -20.27398,9.23458 -1.86411,5.39159 -0.75055,10.84079 2.97709,14.56843 2.77256,2.77256 3.29398,2.91065 9.63688,2.55225 5.53509,-0.31276 7.60336,-0.95492 11.84753,-3.67839 z"
         style="opacity:1;fill:#eb2d2f;fill-opacity:1;stroke-width:0.99009901" />
      <path
         transform="scale(0.26458333)"
         inkscape:connector-curvature="0"
         id="path358"
         d="m 578.35685,617.10898 c -8.87125,-3.16251 -13.82791,-12.89015 -11.61244,-22.7899 1.70514,-7.61936 5.02482,-11.7771 12.2094,-15.2917 6.87016,-3.36079 14.18005,-5.02255 22.09358,-5.02255 8.12485,0 8.36168,-0.22356 8.36168,-7.89319 0,-5.24164 -0.43875,-7.24903 -2.02523,-9.26591 -3.73232,-4.74488 -12.54483,-5.76188 -26.68491,-3.07955 -4.47524,0.84894 -8.33064,1.34969 -8.56755,1.11278 -0.23692,-0.23692 -0.68722,-2.01117 -1.00068,-3.94279 l -0.56992,-3.51204 6.80038,-2.183 c 4.78511,-1.53607 10.17464,-2.31529 18.18652,-2.62939 10.98048,-0.43048 11.58012,-0.34659 16.83066,2.35455 5.78572,2.97645 9.21535,7.10115 10.87624,13.08049 0.55587,2.00115 0.99737,15.70672 1.00045,31.05706 l 0.006,27.47525 h -5.36688 c -5.15358,0 -5.39271,-0.1176 -6.01677,-2.95894 -0.35744,-1.62742 -0.96735,-3.15515 -1.35536,-3.39495 -0.38801,-0.2398 -2.65557,0.8737 -5.03903,2.47445 -8.20597,5.5112 -19.89454,7.34364 -28.12567,4.40933 z m 25.27264,-11.69647 6.27463,-3.24578 0.28384,-10.27227 0.28383,-10.27227 -9.57576,0.62901 c -15.00435,0.9856 -20.64766,4.9585 -20.50469,14.43534 0.17578,11.65258 10.26022,15.4393 23.23815,8.72597 z"
         style="opacity:1;fill:#eb2d2f;fill-opacity:1;stroke-width:0.99009901" />
      <path
         transform="scale(0.26458333)"
         inkscape:connector-curvature="0"
         id="path360"
         d="m 577.18989,616.69824 c -14.84434,-6.74285 -14.73243,-28.86385 0.18701,-36.96775 6.33673,-3.44197 15.1131,-5.72198 22.09167,-5.73918 9.51657,-0.0235 9.9405,-0.32547 9.9405,-7.08181 0,-7.17033 -1.83432,-10.99783 -6.14143,-12.81471 -4.11544,-1.73604 -16.113,-1.70337 -24.39736,0.0664 -6.99943,1.49529 -8.03072,0.97595 -8.05991,-4.05878 -0.0122,-2.11015 0.71193,-2.9062 3.74937,-4.12154 5.80134,-2.32123 14.56712,-3.6602 23.89256,-3.64956 13.31968,0.0152 21.35825,4.81657 24.68142,14.74203 0.73674,2.20046 1.12684,13.083 1.12684,31.43564 v 28.07008 h -5.42669 c -5.10218,0 -5.46559,-0.16281 -6.07748,-2.72277 -1.02008,-4.26773 -1.16164,-4.29466 -6.10239,-1.16067 -9.24832,5.86634 -21.65166,7.55129 -29.46411,4.00259 z m 22.56773,-9.45257 c 2.04318,-0.72914 5.27338,-2.51443 7.17821,-3.96732 l 3.46334,-2.64162 v -9.50381 -9.50381 l -8.85373,0.62845 c -15.60456,1.10764 -20.84924,4.69404 -20.84924,14.25703 0,4.83359 0.35924,5.77028 3.36634,8.77737 2.82005,2.82005 4.06526,3.35929 7.67326,3.32288 2.36881,-0.0239 5.97863,-0.64003 8.02182,-1.36917 z"
         style="opacity:1;fill:#eb2d2f;fill-opacity:1;stroke-width:0.99009901" />
      <path
         transform="scale(0.26458333)"
         inkscape:connector-curvature="0"
         id="path362"
         d="m 577.18989,616.74922 c -10.73648,-5.01372 -14.35838,-18.41256 -7.93843,-29.36737 4.57196,-7.80147 13.70554,-12.00824 28.84525,-13.28564 4.95004,-0.41765 9.52034,-1.08091 10.15622,-1.47391 1.67733,-1.03664 1.41758,-10.1435 -0.39848,-13.97055 -0.89566,-1.88747 -2.83013,-3.80444 -4.56383,-4.52257 -3.88773,-1.61035 -15.30393,-1.58934 -23.93934,0.0441 -7.53678,1.42559 -8.51174,0.9609 -8.54091,-4.0708 -0.0122,-2.11015 0.71193,-2.9062 3.74937,-4.12154 8.93766,-3.57614 27.1924,-4.84623 35.19466,-2.4487 5.39782,1.61723 12.02511,8.11541 13.4071,13.1459 0.67079,2.44169 1.09013,14.68628 1.09353,31.93069 l 0.006,27.9703 h -5.4703 c -5.28603,0 -5.49031,-0.10005 -6.06436,-2.9703 -0.32673,-1.63366 -0.87252,-2.97229 -1.21287,-2.97473 -0.34035,-0.002 -3.91919,1.66823 -7.95298,3.71261 -6.25785,3.17156 -8.43738,3.75771 -14.85149,3.99408 -5.73065,0.21119 -8.46833,-0.16708 -11.51867,-1.59153 z m 21.71042,-9.49261 c 2.5616,-0.77092 6.19677,-2.57578 8.07815,-4.01078 l 3.42071,-2.6091 v -9.4979 -9.49791 l -8.16832,0.67379 c -16.54783,1.36501 -20.65184,3.88317 -21.30987,13.07541 -0.35326,4.93499 -0.0744,6.27815 1.79545,8.6477 3.74916,4.75112 8.17049,5.63047 16.18388,3.21879 z"
         style="opacity:1;fill:#eb2d2f;fill-opacity:1;stroke-width:0.99009901" />
      <path
         transform="scale(0.26458333)"
         inkscape:connector-curvature="0"
         id="path364"
         d="m 577.18989,616.75878 c -10.46727,-4.91299 -14.15369,-17.56516 -8.40253,-28.83837 4.00839,-7.85709 13.32107,-12.26533 29.44295,-13.93708 5.29318,-0.54888 10.02974,-1.40373 10.52569,-1.89969 0.49595,-0.49595 0.70118,-3.67438 0.45605,-7.06319 -0.39085,-5.40344 -0.83439,-6.50878 -3.6053,-8.98458 -2.99499,-2.67602 -3.64028,-2.82312 -12.3848,-2.82312 -5.07386,0 -11.79188,0.51547 -14.92893,1.14548 -6.50087,1.30556 -7.71052,0.54317 -7.2607,-4.57609 0.23325,-2.65461 0.82649,-3.11599 6.19853,-4.82069 7.55684,-2.398 25.92646,-3.34592 32.1612,-1.65959 5.65734,1.53015 12.24876,7.93982 13.7589,13.37951 0.68469,2.46631 1.10064,14.49471 1.10408,31.92742 l 0.006,27.9703 h -5.34869 c -5.08751,0 -5.40077,-0.1494 -6.41527,-3.0596 -0.58662,-1.68277 -1.40991,-2.90482 -1.82953,-2.71566 -0.41962,0.18917 -3.65899,1.86423 -7.19859,3.72236 -5.42999,2.85048 -7.67339,3.43562 -14.35644,3.74455 -6.26289,0.2895 -8.75832,-0.027 -11.92215,-1.51196 z m 25.4683,-11.13147 c 7.58884,-3.81644 7.74098,-4.10294 7.74098,-14.57704 v -9.38034 l -8.16832,0.67115 c -15.70963,1.29077 -21.52217,4.97008 -21.53095,13.629 -0.005,5.31871 1.50306,8.46019 5.16964,10.76624 3.99656,2.51358 10.43037,2.08858 16.78865,-1.10901 z"
         style="opacity:1;fill:#eb2d2f;fill-opacity:1;stroke-width:0.99009901" />
      <path
         transform="scale(0.26458333)"
         inkscape:connector-curvature="0"
         id="path366"
         d="m 577.18989,616.75878 c -7.73635,-3.63119 -12.04357,-11.46325 -11.02656,-20.05026 1.6342,-13.79826 11.1958,-20.68145 31.64403,-22.77983 5.61667,-0.57638 10.40505,-1.55484 10.82256,-2.21148 1.34189,-2.11047 0.81618,-9.01854 -0.95506,-12.55009 -3.14066,-6.26191 -4.32765,-6.43071 -32.91926,-4.68125 -3.41255,0.2088 -3.46534,0.15232 -3.46534,-3.70773 v -3.91976 l 5.94059,-1.89103 c 7.5524,-2.4041 25.91468,-3.35501 32.1612,-1.66549 5.65734,1.53015 12.24876,7.93982 13.7589,13.37951 0.68469,2.46631 1.10064,14.49471 1.10408,31.92742 l 0.006,27.9703 h -5.34869 c -5.06575,0 -5.40407,-0.15885 -6.39552,-3.00295 l -1.04684,-3.00295 -7.21834,3.66476 c -6.16166,3.12828 -8.37785,3.71849 -15.13913,4.03184 -6.26419,0.29031 -8.75766,-0.0257 -11.92215,-1.51101 z m 24.89907,-11.0155 c 7.48839,-3.31247 8.31021,-4.78664 8.31021,-14.90676 v -8.91089 l -2.72277,0.0306 c -6.15615,0.0691 -17.41838,2.01767 -20.72169,3.58519 -8.27824,3.92828 -8.28233,17.99366 -0.006,21.71368 3.72339,1.67365 9.16846,1.12996 15.14056,-1.51178 z"
         style="opacity:1;fill:#eb2d2f;fill-opacity:1;stroke-width:0.99009901" />
      <path
         transform="scale(0.26458333)"
         inkscape:connector-curvature="0"
         id="path368"
         d="m 177.22244,593.62616 c -20.36525,-0.92605 -40.0906,-5.29117 -40.0906,-8.87185 0,-2.75963 14.35167,-9.32757 28.89628,-13.22419 11.51578,-3.08517 15.10473,-3.11915 7.18247,-0.068 -9.42825,3.63116 -14.09989,6.30386 -14.78354,8.45784 -0.82296,2.59293 -0.23401,3.41811 3.8088,5.33655 10.00266,4.74657 73.74605,4.23677 110.39906,-0.88294 5.79509,-0.80947 12.31871,-1.69529 14.49693,-1.9685 l 3.9604,-0.49675 -2.47525,1.93963 c -5.52505,4.32948 -35.80414,8.75739 -67.32673,9.84562 -12.79703,0.44179 -24.60396,0.75938 -26.23763,0.70577 -1.63366,-0.0536 -9.65725,-0.40155 -17.83019,-0.77318 z"
         style="opacity:1;fill:#0173bb;fill-opacity:1;stroke-width:0.99009901" />
      <path
         transform="scale(0.26458333)"
         inkscape:connector-curvature="0"
         id="path370"
         d="m 175.67138,593.80594 c -20.92761,-1.35223 -38.53954,-5.5687 -38.53954,-9.22675 0,-3.28411 25.58854,-13.51847 37.62376,-15.04796 4.17541,-0.53063 3.9576,-0.35632 -3.46534,2.7732 -9.80104,4.13214 -12.12014,5.56465 -12.71957,7.85687 -0.62986,2.4086 1.60181,4.46396 6.18764,5.6988 15.82928,4.26238 72.25446,3.21653 110.33915,-2.04514 8.08406,-1.11688 14.91727,-1.81171 15.18491,-1.54407 0.26763,0.26764 -0.55453,1.16083 -1.82702,1.98488 -4.26803,2.7639 -23.89549,6.42351 -45.38293,8.4618 -14.93932,1.41714 -52.84101,2.02917 -67.40106,1.08837 z"
         style="opacity:1;fill:#0173bb;fill-opacity:1;stroke-width:0.99009901" />
      <path
         transform="scale(0.26458333)"
         inkscape:connector-curvature="0"
         id="path372"
         d="m 173.69836,593.75723 c -19.6573,-1.41483 -36.56652,-5.7091 -36.56652,-9.28643 0,-2.65382 14.71188,-9.28972 29.68307,-13.38877 11.34709,-3.10679 13.70948,-2.51511 4.89072,1.22491 -9.51843,4.03676 -12.79161,6.2195 -12.79161,8.53018 0,4.28633 5.77531,5.81125 26.73267,7.05852 23.35528,1.38998 72.55662,-1.17227 95.54456,-4.97566 3.26732,-0.54059 6.83168,-0.97064 7.92079,-0.95568 1.9127,0.0263 1.90619,0.089 -0.19104,1.8399 -8.6947,7.25895 -74.12605,12.91096 -115.22264,9.95303 z"
         style="opacity:1;fill:#0173bb;fill-opacity:1;stroke-width:0.99009901" />
      <path
         transform="scale(0.26458333)"
         inkscape:connector-curvature="0"
         id="path374"
         d="m 171.78531,593.73928 c -10.7879,-0.89522 -27.21468,-4.05685 -31.33263,-6.03052 -5.43138,-2.6032 -4.257,-4.47517 5.79463,-9.23667 9.13416,-4.32689 25.65403,-9.4219 30.48849,-9.40317 1.62599,0.006 -0.17408,1.16623 -5.24648,3.38074 -10.56871,4.61407 -12.76249,6.17004 -12.38844,8.78669 0.16951,1.18573 1.42205,2.68237 2.78344,3.32586 10.46797,4.94792 75.79816,4.28377 114.61528,-1.16519 5.76503,-0.80927 11.40681,-1.45657 12.53726,-1.43845 2.01787,0.0323 2.01453,0.067 -0.18334,1.90028 -8.83422,7.36873 -77.49939,13.16399 -117.06821,9.88043 z"
         style="opacity:1;fill:#0173bb;fill-opacity:1;stroke-width:0.99009901" />
      <path
         transform="scale(0.26458333)"
         inkscape:connector-curvature="0"
         id="path376"
         d="m 170.79521,593.80478 c -12.42807,-1.28551 -25.76368,-3.87791 -29.70297,-5.77419 -5.44556,-2.62134 -4.64204,-4.99044 2.9703,-8.75766 8.25457,-4.08505 23.83145,-9.09871 30.19802,-9.7197 l 4.95049,-0.48287 -3.9604,1.69141 c -2.17821,0.93028 -6.63366,3.04301 -9.90099,4.69496 -4.87562,2.4651 -5.94059,3.44729 -5.94059,5.4788 0,2.10156 0.82211,2.77252 5.44554,4.44431 5.06572,1.83173 7.93171,1.96587 41.08911,1.92321 35.17534,-0.0453 44.61068,-0.64197 80.19802,-5.07189 4.46337,-0.5556 4.82122,-0.46015 3.63668,0.97 -2.68126,3.23721 -16.95339,6.4417 -40.76539,9.15297 -15.70174,1.78782 -65.94866,2.71972 -78.21782,1.45065 z"
         style="opacity:1;fill:#0173bb;fill-opacity:1;stroke-width:0.99009901" />
      <path
         transform="scale(0.26458333)"
         inkscape:connector-curvature="0"
         id="path378"
         d="m 170.20493,593.82287 c -20.40915,-2.16671 -32.57804,-5.68668 -32.57804,-9.42354 0,-3.73033 23.8987,-13.50335 36.22464,-14.81353 5.98158,-0.63581 6.41169,-0.96459 -6.66084,5.09154 -7.64182,3.54023 -9.24254,5.53004 -6.70466,8.33436 3.30883,3.65622 11.06342,4.36523 46.44779,4.24678 32.46464,-0.10868 45.5102,-0.93669 78.62036,-4.99007 3.9562,-0.48432 5.16702,-0.35435 4.64019,0.49808 -2.08576,3.37483 -16.78719,6.88273 -40.19124,9.59 -15.52039,1.79533 -67.67256,2.75368 -79.7982,1.46638 z"
         style="opacity:1;fill:#0173bb;fill-opacity:1;stroke-width:0.99009901" />
      <path
         transform="scale(0.26458333)"
         inkscape:connector-curvature="0"
         id="path380"
         d="m 169.88757,593.75957 c -19.04619,-1.99317 -31.88438,-5.56537 -32.55719,-9.05896 -0.68721,-3.56842 23.67325,-13.70414 36.43513,-15.15965 l 5.44554,-0.62107 -8.91089,4.35466 c -4.90099,2.39507 -9.47453,5.04094 -10.16343,5.87972 -2.03194,2.47402 1.33619,5.57782 7.19313,6.6286 16.1532,2.898 70.74308,1.89797 102.81605,-1.88348 19.95371,-2.35258 22.29181,-2.30637 18.28552,0.36137 -8.87731,5.91129 -50.9578,10.6724 -91.89365,10.39712 -10.61881,-0.0714 -22.6114,-0.47565 -26.65021,-0.89831 z"
         style="opacity:1;fill:#0173bb;fill-opacity:1;stroke-width:0.99009901" />
      <path
         transform="scale(0.26458333)"
         inkscape:connector-curvature="0"
         id="path382"
         d="m 168.86432,593.72141 c -11.08412,-1.06737 -23.48223,-3.59769 -27.77208,-5.66797 -5.21711,-2.51777 -4.937,-4.5399 1.10703,-7.99179 6.62426,-3.78327 25.20417,-9.97594 31.88084,-10.62585 l 5.13094,-0.49945 -9.40594,4.76196 c -7.24777,3.66935 -9.47915,5.27785 -9.72503,7.01031 -0.25273,1.78076 0.46795,2.6044 3.46535,3.9604 3.39887,1.53763 8.02104,1.70801 45.36859,1.67235 36.62311,-0.035 43.74222,-0.30074 59.67331,-2.22773 20.15491,-2.43788 22.00986,-2.55152 22.00986,-1.34829 0,2.44817 -13.42609,6.05285 -31.68317,8.50639 -24.40315,3.27951 -68.87045,4.48918 -90.0497,2.44967 z"
         style="opacity:1;fill:#0173bb;fill-opacity:1;stroke-width:0.99009901" />
      <path
         transform="scale(0.26458333)"
         inkscape:connector-curvature="0"
         id="path384"
         d="m 168.31996,593.77744 c -11.31152,-1.28027 -23.19754,-3.77903 -27.22772,-5.724 -5.21711,-2.51777 -4.937,-4.5399 1.10703,-7.99179 6.59712,-3.76777 25.17586,-9.96865 31.88084,-10.64062 l 5.13094,-0.51422 -9.40594,4.77674 c -7.24183,3.6777 -9.47936,5.29403 -9.72503,7.02507 -0.25273,1.78076 0.46795,2.6044 3.46535,3.9604 3.40368,1.5398 7.96823,1.7041 45.36859,1.63299 36.20306,-0.0688 43.89035,-0.35702 59.40594,-2.22711 19.66544,-2.37027 22.27723,-2.52767 22.27723,-1.34255 0,2.77732 -18.13221,7.19862 -39.60396,9.6569 -15.74758,1.80292 -70.83629,2.72793 -82.67327,1.38819 z"
         style="opacity:1;fill:#0173bb;fill-opacity:1;stroke-width:0.99009901" />
      <path
         transform="scale(0.26458333)"
         inkscape:connector-curvature="0"
         id="path386"
         d="m 317.32986,618.71865 c 14.04704,-9.06274 22.74257,-21.05219 22.76261,-31.38521 0.0218,-11.22458 -7.92881,-19.32718 -19.76711,-20.1451 -7.83019,-0.541 -4.89704,-1.84141 4.50139,-1.9957 23.88197,-0.39207 34.51562,22.62714 18.41024,39.85356 -4.48544,4.79766 -14.77166,11.63234 -22.74767,15.1147 -10.70097,4.6721 -11.83453,4.15465 -3.15946,-1.44225 z"
         style="opacity:1;fill:#0173bb;fill-opacity:1;stroke-width:0.99009901" />
      <path
         transform="scale(0.26458333)"
         inkscape:connector-curvature="0"
         id="path388"
         d="m 316.84538,618.88372 c 18.50729,-12.37203 26.73406,-27.32635 21.51885,-39.1162 -3.51395,-7.94388 -10.62195,-12.57652 -19.54922,-12.74122 -7.51314,-0.13862 -2.53861,-1.77696 5.65593,-1.86277 15.55875,-0.16291 26.55434,8.92837 26.50054,21.91095 -0.0523,12.63049 -11.15676,24.63812 -30.67132,33.16605 -10.37207,4.53263 -11.56433,4.06438 -3.45478,-1.35681 z"
         style="opacity:1;fill:#0173bb;fill-opacity:1;stroke-width:0.99009901" />
      <path
         transform="scale(0.26458333)"
         inkscape:connector-curvature="0"
         id="path390"
         d="m 316.92706,618.69834 c 22.42125,-15.77532 28.93479,-33.25376 16.88346,-45.30508 -4.35501,-4.35501 -9.2516,-6.29359 -15.98561,-6.32876 -2.92299,-0.0153 -3.57137,-0.27209 -2.47525,-0.98046 2.81531,-1.81939 16.93074,-1.12586 21.78218,1.07021 8.93986,4.04676 13.86139,11.14181 13.86139,19.98308 0,11.65122 -9.52094,22.67216 -27.14659,31.42346 -12.86678,6.38847 -15.88933,6.44855 -6.91958,0.13755 z"
         style="opacity:1;fill:#0173bb;fill-opacity:1;stroke-width:0.99009901" />
      <path
         transform="scale(0.26458333)"
         inkscape:connector-curvature="0"
         id="path392"
         d="m 317.9867,617.73358 c 20.75915,-15.45418 26.80349,-30.22012 17.43707,-42.59767 -3.1966,-4.22426 -11.27547,-8.03477 -17.10381,-8.06726 -3.24395,-0.0181 -4.05161,-0.28581 -2.9703,-0.98461 2.81531,-1.81939 16.93074,-1.12586 21.78218,1.07021 8.93986,4.04676 13.86139,11.14181 13.86139,19.98308 0,11.65122 -9.52094,22.67216 -27.14659,31.42346 -13.36688,6.63677 -15.48454,6.33784 -5.85994,-0.82721 z"
         style="opacity:1;fill:#0173bb;fill-opacity:1;stroke-width:0.99009901" />
      <path
         transform="scale(0.26458333)"
         inkscape:connector-curvature="0"
         id="path394"
         d="m 317.89708,617.7583 c 13.99165,-10.25309 21.49785,-20.90647 21.49785,-30.51141 0,-10.50005 -8.04872,-18.69661 -19.52217,-19.88077 -7.9858,-0.82421 -4.88566,-2.24339 4.88284,-2.23527 15.80266,0.0131 26.23763,8.76533 26.23763,22.00648 0,11.57344 -9.6073,22.751 -27.06983,31.49423 -13.47577,6.74712 -15.93833,6.39028 -6.02632,-0.87326 z"
         style="opacity:1;fill:#0173bb;fill-opacity:1;stroke-width:0.99009901" />
      <path
         transform="scale(0.26458333)"
         inkscape:connector-curvature="0"
         id="path396"
         d="m 318.47331,617.1918 c 18.0982,-13.65119 24.42167,-26.82647 18.62371,-38.80345 -3.12604,-6.45754 -11.72717,-11.26442 -20.26221,-11.32385 -2.2828,-0.0159 -2.62655,-0.24283 -1.48515,-0.98046 2.06858,-1.33681 15.8285,-1.23059 19.90176,0.15363 9.37373,3.18549 14.94165,10.12835 15.55999,19.40236 0.34788,5.21753 -0.003,7.03981 -2.23573,11.60284 -3.73644,7.63701 -12.67392,15.3913 -24.65228,21.38869 -13.76166,6.89026 -15.78504,6.35574 -5.45009,-1.43976 z"
         style="opacity:1;fill:#0173bb;fill-opacity:1;stroke-width:0.99009901" />
      <path
         transform="scale(0.26458333)"
         inkscape:connector-curvature="0"
         id="path398"
         d="m 316.93468,618.36108 c 18.19409,-13.71374 25.41694,-26.7422 21.12427,-38.10367 -2.44435,-6.46952 -10.37347,-11.88084 -18.8861,-12.88903 -7.14775,-0.84655 -3.94625,-2.24088 5.18748,-2.25928 8.4368,-0.017 12.60583,1.10417 17.81667,4.79136 8.4102,5.95107 11.14173,16.64833 6.81774,26.69972 -3.27303,7.60838 -12.45146,15.71431 -24.78449,21.88844 -13.32936,6.67291 -16.2303,6.62205 -7.27557,-0.12754 z"
         style="opacity:1;fill:#0173bb;fill-opacity:1;stroke-width:0.99009901" />
      <path
         transform="scale(0.26458333)"
         inkscape:connector-curvature="0"
         id="path402"
         d="m 315.97311,619.02592 c 22.61584,-17.44714 28.73872,-32.85987 17.8251,-44.86992 -3.06213,-3.36975 -8.50364,-5.88639 -14.42649,-6.67208 -7.27761,-0.96541 -4.35652,-2.35599 4.98861,-2.37482 16.32388,-0.0329 25.70444,7.3216 26.46307,20.74739 0.31555,5.58445 -0.0188,7.39834 -2.13284,11.57015 -3.75855,7.41714 -12.86722,15.24826 -24.52261,21.08315 -12.82222,6.41903 -16.11531,6.62644 -8.19484,0.51613 z"
         style="opacity:1;fill:#0173bb;fill-opacity:1;stroke-width:0.99009901" />
      <path
         transform="scale(0.26458333)"
         inkscape:connector-curvature="0"
         id="path404"
         d="m 317.44298,617.74326 c 8.5769,-6.76349 16.07386,-14.83081 18.86311,-20.2982 6.85664,-13.44012 -0.14522,-26.49431 -15.93751,-29.71369 -7.86312,-1.60297 -5.95061,-2.65502 4.71553,-2.59397 8.58044,0.0491 13.09855,1.36201 18.27533,5.31053 7.66098,5.84331 9.96701,17.83023 5.22892,27.18038 -3.66148,7.2256 -12.8686,15.09845 -24.42041,20.88148 -13.65737,6.83712 -16.02505,6.56724 -6.72497,-0.76653 z"
         style="opacity:1;fill:#0173bb;fill-opacity:1;stroke-width:0.99009901" />
      <path
         transform="scale(0.26458333)"
         inkscape:connector-curvature="0"
         id="path406"
         d="m 200.41567,629.06616 c -0.2269,-0.21133 -3.53135,-0.68103 -7.34323,-1.04378 -9.15247,-0.87099 -21.53816,-4.21372 -25.51929,-6.88731 -2.00984,-1.34973 -3.30789,-3.12323 -3.50197,-4.78465 -0.25317,-2.16726 0.42512,-3.10299 3.78823,-5.22603 6.07789,-3.8368 6.73745,-3.95761 6.19793,-1.1353 -1.1119,5.81651 5.48804,7.86684 30.54659,9.48958 16.15402,1.04609 33.35045,0.11689 54.9565,-2.96955 l 15.97295,-2.28174 3.04988,2.5663 c 1.67743,1.41147 3.62327,2.7707 4.32408,3.02051 0.70081,0.24981 1.0185,0.73377 0.70598,1.07547 -1.08879,1.19043 -24.70857,5.61371 -37.76622,7.07248 -11.69313,1.30634 -44.34195,2.10008 -45.41143,1.10402 z"
         style="opacity:1;fill:#0173bb;fill-opacity:1;stroke-width:0.99009901" />
      <path
         transform="scale(0.26458333)"
         inkscape:connector-curvature="0"
         id="path408"
         d="m 190.59719,627.92227 c -23.97789,-3.73566 -32.93015,-10.37634 -22.69692,-16.83629 6.22396,-3.92902 7.06111,-4.08734 6.336,-1.19828 -0.47852,1.90661 -0.0411,2.92528 1.91807,4.46633 4.6387,3.6488 14.02562,4.70211 41.67057,4.67589 22.08813,-0.0209 27.85091,-0.35536 40.59406,-2.35555 8.16832,-1.28211 15.34531,-2.34786 15.94887,-2.36831 1.29843,-0.044 9.24688,5.44051 9.27752,6.40159 0.0448,1.40866 -25.05323,6.20594 -40.4303,7.72789 -13.866,1.37239 -42.29439,1.09508 -52.61787,-0.51327 z"
         style="opacity:1;fill:#0173bb;fill-opacity:1;stroke-width:0.99009901" />
      <path
         transform="scale(0.26458333)"
         inkscape:connector-curvature="0"
         id="path410"
         d="m 192.17832,628.38193 c -26.40462,-3.61634 -35.84417,-11.93663 -21.6798,-19.10919 4.04035,-2.04595 4.5211,-2.01593 3.80583,0.23766 -0.77865,2.45332 2.06742,5.57131 6.39185,7.00254 11.23076,3.71698 53.10328,3.57791 78.97574,-0.26231 l 15.11436,-2.2434 4.4401,2.88825 c 5.14678,3.34794 5.48105,4.36194 1.71732,5.20958 -1.49752,0.33726 -4.28217,0.99876 -6.18812,1.46999 -14.44798,3.57219 -29.18904,5.10908 -51.98019,5.41941 -13.06931,0.17795 -26.838,-0.0977 -30.59709,-0.61253 z"
         style="opacity:1;fill:#0173bb;fill-opacity:1;stroke-width:0.99009901" />
      <path
         transform="scale(0.26458333)"
         inkscape:connector-curvature="0"
         id="path412"
         d="m 192.05465,628.48067 c -12.62934,-1.78247 -24.13298,-5.73075 -27.09475,-9.29947 -2.10067,-2.53115 -0.83119,-5.82385 3.36006,-8.71516 5.15241,-3.55436 6.43564,-3.50887 6.43564,0.22813 0,5.01444 5.27014,6.64274 25.61432,7.91397 19.09826,1.19337 41.88236,0.14328 62.2278,-2.868 l 12.09955,-1.79083 4.48461,2.91721 c 2.46654,1.60446 4.48462,3.29285 4.48462,3.75197 0,1.20456 -10.24979,3.6761 -26.73268,6.44607 -10.80211,1.81531 -55.18667,2.78409 -64.87917,1.41611 z"
         style="opacity:1;fill:#0173bb;fill-opacity:1;stroke-width:0.99009901" />
      <path
         transform="scale(0.26458333)"
         inkscape:connector-curvature="0"
         id="path414"
         d="m 188.46358,627.97157 c -11.10036,-1.86852 -21.90111,-5.85638 -23.84133,-8.80271 -1.79558,-2.7267 -0.6582,-5.61975 3.35121,-8.52415 4.9887,-3.6138 6.78214,-3.76505 6.78214,-0.57198 0,5.69664 4.94607,7.24097 26.94546,8.4133 19.17787,1.02197 43.10548,-0.0863 60.58337,-2.80599 l 12.57555,-1.95687 4.40326,3.1037 c 2.42179,1.70704 4.40326,3.44631 4.40326,3.86505 0,1.70638 -22.35663,6.22932 -38.23272,7.73482 -14.56767,1.38143 -47.62869,1.11728 -56.9702,-0.45517 z"
         style="opacity:1;fill:#0173bb;fill-opacity:1;stroke-width:0.99009901" />
      <path
         transform="scale(0.26458333)"
         inkscape:connector-curvature="0"
         id="path418"
         d="m 187.96508,628.04545 c -8.88364,-1.68709 -16.71365,-4.20621 -20.88274,-6.7185 -4.80795,-2.89727 -4.48329,-6.78904 0.89112,-10.68224 4.94642,-3.58317 6.78214,-3.76038 6.78214,-0.65472 0,1.27699 0.77971,3.01772 1.73268,3.86829 4.07995,3.64156 9.69847,4.2073 41.33663,4.16232 26.81411,-0.0381 32.36315,-0.31872 43.90788,-2.2203 l 13.2148,-2.17667 4.35946,3.13072 c 2.39769,1.7219 4.35945,3.48356 4.35945,3.91482 0,0.43125 -1.89357,1.26881 -4.20793,1.86124 -2.31435,0.59243 -4.83041,1.28909 -5.59123,1.54814 -0.76082,0.25905 -6.77568,1.39825 -13.36634,2.53155 -15.53703,2.67169 -61.26145,3.57649 -72.53592,1.43535 z"
         style="opacity:1;fill:#0173bb;fill-opacity:1;stroke-width:0.99009901" />
      <path
         transform="scale(0.26458333)"
         inkscape:connector-curvature="0"
         id="path420"
         d="m 187.7511,627.9495 c -22.22621,-4.02472 -29.42053,-10.31951 -19.77764,-17.30479 4.94642,-3.58317 6.78214,-3.76038 6.78214,-0.65472 0,6.75208 7.20669,8.07723 43.56436,8.01055 24.84974,-0.0456 31.2562,-0.37268 42.93522,-2.19218 l 13.72729,-2.13861 4.34202,2.98738 c 2.38809,1.64306 4.34201,3.37991 4.34201,3.85967 0,1.97874 -19.86052,6.17473 -37.48115,7.91874 -14.40484,1.42573 -49.48819,1.13392 -58.43425,-0.48604 z"
         style="opacity:1;fill:#0173bb;fill-opacity:1;stroke-width:0.99009901" />
      <path
         transform="scale(0.26458333)"
         inkscape:connector-curvature="0"
         id="path422"
         d="m 192.08234,628.80515 c -8.53036,-1.31455 -20.23396,-4.66038 -23.97904,-6.85514 -3.38149,-1.98169 -4.23878,-3.04149 -4.23878,-5.24007 0,-2.79084 2.53125,-5.82307 6.61807,-7.92792 3.25442,-1.67613 4.11075,-1.37615 4.45478,1.56054 0.20957,1.78899 1.38075,3.29545 3.53771,4.55044 7.65939,4.4565 61.93746,4.54008 87.06238,0.13406 l 9.09868,-1.59559 4.51518,3.10652 c 2.48334,1.70859 4.51518,3.51822 4.51518,4.0214 0,1.28262 -8.34949,3.54629 -22.27723,6.03968 -9.89379,1.77122 -16.43565,2.17191 -39.10891,2.39541 -14.97525,0.14762 -28.56436,0.0624 -30.19802,-0.18933 z"
         style="opacity:1;fill:#0173bb;fill-opacity:1;stroke-width:0.99009901" />
      <path
         transform="scale(0.26458333)"
         inkscape:connector-curvature="0"
         id="path424"
         d="m 167.32986,593.71957 c -10.99605,-1.12996 -25.74695,-4.64357 -28.35259,-6.75349 -1.42431,-1.15333 -1.95033,-2.34888 -1.52321,-3.46195 1.33539,-3.47997 26.07229,-13.04478 36.19759,-13.99621 l 5.5594,-0.52239 -7.60868,3.78289 c -12.49937,6.21446 -14.3847,9.03123 -7.98538,11.9305 3.30664,1.4981 8.10018,1.67433 43.81188,1.61064 31.04916,-0.0554 43.56254,-0.458 55.44555,-1.78405 24.54092,-2.73857 27.72277,-2.96081 27.72277,-1.93634 0,2.69518 -15.43246,6.83621 -34.15842,9.16583 -23.0871,2.87217 -70.17431,3.9103 -89.10891,1.96457 z"
         style="opacity:1;fill:#0173bb;fill-opacity:1;stroke-width:0.99009901" />
      <path
         transform="scale(0.26458333)"
         inkscape:connector-curvature="0"
         id="path426"
         d="m 166.83481,593.68997 c -10.64304,-1.21833 -21.66675,-3.6189 -25.71517,-5.59985 -5.20593,-2.54733 -4.65263,-5.0479 1.89308,-8.55555 7.59019,-4.06736 23.7264,-9.36815 30.48817,-10.01544 l 5.71016,-0.54663 -8.47061,4.41019 c -10.64744,5.54354 -11.92166,6.90754 -9.09423,9.73498 1.84534,1.84533 3.85719,2.17653 18.23535,3.00205 19.23144,1.10416 77.08807,-0.5792 92.89385,-2.70278 12.19576,-1.63856 17.82178,-1.8324 17.82178,-0.61403 0,2.46925 -15.40759,6.62878 -33.16832,8.95433 -21.68722,2.83966 -73.09119,3.93632 -90.59406,1.93273 z"
         style="opacity:1;fill:#0173bb;fill-opacity:1;stroke-width:0.99009901" />
      <path
         transform="scale(0.26458333)"
         inkscape:connector-curvature="0"
         id="path428"
         d="m 200.99323,698.09214 c -15.28435,-0.61572 -48.61816,-3.37028 -58.91089,-4.86813 -20.2065,-2.94056 -23.30161,-3.54285 -26.64268,-5.18447 -5.40937,-2.65787 -5.98966,-4.51796 -2.53746,-8.1337 5.37562,-5.63029 26.6142,-13.97052 35.03159,-13.75664 1.62094,0.0412 0.59594,0.59446 -2.78604,1.50386 -2.94274,0.79129 -7.62096,2.65553 -10.39604,4.14276 -4.20718,2.25473 -5.09538,3.21479 -5.34511,5.7776 -0.27534,2.82575 0.0873,3.23995 4.4986,5.13763 24.11436,10.37371 116.47365,12.06233 170.05833,3.10919 19.17673,-3.20412 28.46068,-6.84062 30.62889,-11.99725 0.8521,-2.02654 1.52677,-2.63585 2.02535,-1.82913 2.86358,4.63336 -9.67805,11.62308 -30.179,16.81944 -24.19335,6.13226 -74.23801,10.53602 -105.44554,9.27884 z"
         style="opacity:1;fill:#0173bb;fill-opacity:1;stroke-width:0.99009901" />
      <path
         transform="scale(0.26458333)"
         inkscape:connector-curvature="0"
         id="path430"
         d="m 201.48828,698.08823 c -28.67736,-1.06443 -72.66009,-5.6738 -82.55502,-8.65173 -5.01282,-1.50864 -8.53409,-4.01592 -8.53409,-6.07661 0,-5.20476 25.98729,-17.445 36.49043,-17.18732 l 3.60858,0.0885 -4.45545,1.25942 c -8.4297,2.38284 -15.81328,6.52186 -16.4975,9.24801 -0.88773,3.53701 1.84422,5.44942 11.51083,8.05775 11.26989,3.04094 26.64825,4.81422 53.74595,6.19742 45.09685,2.30198 107.7978,-2.56541 128.98799,-10.01316 6.01666,-2.11469 11.36164,-6.28944 11.36164,-8.87412 0,-1.08886 0.29725,-1.20068 1.08846,-0.40948 1.89024,1.89024 -0.0708,5.14857 -4.74863,7.88995 -12.10325,7.09298 -37.30356,13.1883 -66.63686,16.1178 -11.01627,1.10019 -49.28613,3.11018 -53.46534,2.80808 -1.36139,-0.0984 -5.81683,-0.30296 -9.90099,-0.45455 z"
         style="opacity:1;fill:#0173bb;fill-opacity:1;stroke-width:0.99009901" />
      <path
         transform="scale(0.26458333)"
         inkscape:connector-curvature="0"
         id="path434"
         d="m 199.01303,698.14838 c -50.68803,-2.93674 -80.30181,-6.85792 -86.07215,-11.39687 -3.24187,-2.55006 -3.20314,-4.11803 0.18106,-7.32974 5.61765,-5.33132 26.11926,-13.42364 33.56189,-13.24741 l 3.81435,0.0903 -5.44555,1.72483 c -14.99727,4.75024 -19.63977,10.02038 -12.12871,13.76841 17.56731,8.76612 80.08569,12.18031 137.37624,7.50224 40.41768,-3.3003 59.21941,-7.86023 63.85765,-15.48719 1.51086,-2.48442 2.02419,-2.79548 2.51265,-1.52258 2.74387,7.15043 -20.72932,16.29129 -54.98416,21.41175 -21.02169,3.14236 -64.83391,5.51982 -82.67327,4.48625 z"
         style="opacity:1;fill:#0173bb;fill-opacity:1;stroke-width:0.99009901" />
      <path
         transform="scale(0.26458333)"
         inkscape:connector-curvature="0"
         id="path436"
         d="m 194.55758,698.14631 c -27.01449,-1.56342 -60.71601,-5.24575 -72.47884,-7.91928 -6.88611,-1.56511 -11.67957,-4.41149 -11.67957,-6.93539 0,-5.3536 25.25381,-17.35546 36.01747,-17.11728 l 4.08154,0.0903 -5.44555,1.72811 c -12.47815,3.95987 -17.64409,8.31982 -14.27233,12.04558 3.57211,3.94714 21.92872,7.81881 46.34681,9.77521 16.22271,1.29978 68.23948,1.32217 85.74731,0.0369 44.53485,-3.26933 67.43646,-8.57906 71.69175,-16.62171 1.18549,-2.24062 1.53093,-2.41312 2.07051,-1.03398 1.07071,2.73662 -1.05953,5.26775 -7.17801,8.52887 -14.19671,7.56677 -41.64025,13.44813 -74.50505,15.96702 -15.12991,1.15961 -50.69841,2.01686 -60.39604,1.45563 z"
         style="opacity:1;fill:#0173bb;fill-opacity:1;stroke-width:0.99009901" />
      <path
         transform="scale(0.26458333)"
         inkscape:connector-curvature="0"
         id="path438"
         d="m 193.56749,698.10344 c -35.4372,-2.44901 -61.58032,-5.30787 -71.76868,-7.84821 -14.61517,-3.64411 -14.87932,-8.7301 -0.83113,-16.00218 9.37732,-4.8542 19.87087,-8.19509 25.42687,-8.09531 l 4.10363,0.0737 -6.73908,2.35535 c -21.68675,7.57967 -18.35537,13.58981 10.15035,18.31226 17.27569,2.862 35.22182,3.93907 65.351,3.92215 63.95746,-0.0359 109.72573,-6.969 115.21919,-17.45366 0.88437,-1.68787 1.62051,-2.21122 2.07527,-1.4754 4.67486,7.5641 -23.96275,18.07351 -62.29435,22.86074 -24.68507,3.08292 -62.09124,4.63611 -80.69307,3.35056 z"
         style="opacity:1;fill:#0173bb;fill-opacity:1;stroke-width:0.99009901" />
      <path
         transform="scale(0.26458333)"
         inkscape:connector-curvature="0"
         id="path440"
         d="m 184.16155,697.73392 c -17.54445,-1.32026 -41.21776,-3.83735 -52.47525,-5.57949 -24.0301,-3.71876 -27.36313,-9.28531 -10.71862,-17.90138 9.33239,-4.83094 19.83861,-8.18642 25.42687,-8.12087 4.03999,0.0474 3.98715,0.0915 -3.40699,2.8409 -9.87458,3.67179 -12.78641,5.64543 -12.78641,8.66664 0,7.128 28.156,11.90956 75.74257,12.86288 67.54622,1.35319 122.28341,-5.90426 128.22198,-17.00058 1.56584,-2.92578 3.51778,-1.8049 2.49093,1.43039 -2.7167,8.55959 -38.37906,18.26279 -80.21786,21.8261 -17.15406,1.46097 -58.42371,2.01792 -72.27722,0.97541 z"
         style="opacity:1;fill:#0173bb;fill-opacity:1;stroke-width:0.99009901" />
      <path
         transform="scale(0.26458333)"
         inkscape:connector-curvature="0"
         id="path442"
         d="m 183.17145,697.65915 c -19.5699,-1.47175 -42.35507,-3.97237 -53.72261,-5.89594 -23.20179,-3.92612 -25.17802,-9.42537 -6.67343,-18.57015 8.0278,-3.96726 18.626,-7.1247 23.61914,-7.03668 l 4.10363,0.0724 -5.00126,1.78068 c -10.23659,3.6447 -15.29577,7.00683 -15.29577,10.16495 0,2.62486 6.78521,5.4326 18.59557,7.6949 31.58958,6.05106 98.22696,6.5011 141.62344,0.95645 26.17986,-3.34493 37.66735,-6.68681 42.70398,-12.42322 2.3908,-2.72296 3.16851,-3.13665 3.63101,-1.93141 0.96235,2.50785 -0.29663,4.34677 -5.03189,7.34978 -9.32576,5.91422 -34.19452,12.30841 -59.93795,15.41107 -26.52311,3.19664 -64.53735,4.23789 -88.61386,2.42722 z"
         style="opacity:1;fill:#0173bb;fill-opacity:1;stroke-width:0.99009901" />
      <path
         transform="scale(0.26458333)"
         inkscape:connector-curvature="0"
         id="path444"
         d="m 182.18135,697.6674 c -17.99395,-1.33959 -40.89505,-3.90441 -52.73251,-5.90579 -21.73041,-3.67401 -24.72597,-8.71733 -10.13878,-17.06962 6.4298,-3.68156 21.85119,-8.61072 26.87872,-8.59129 l 4.3094,0.0167 -8.20345,3.32704 c -8.40344,3.40814 -12.09358,5.88197 -12.09358,8.10738 0,9.52615 59.30465,15.46432 122.77228,12.29317 44.6227,-2.22957 71.32258,-7.23522 79.3564,-14.87761 3.91822,-3.72731 4.80201,-3.88336 4.80201,-0.84787 0,5.40954 -20.26156,13.58227 -44.94531,18.12921 -29.81623,5.49237 -77.47918,7.84019 -110.00518,5.41873 z"
         style="opacity:1;fill:#0173bb;fill-opacity:1;stroke-width:0.99009901" />
      <path
         transform="scale(0.26458333)"
         inkscape:connector-curvature="0"
         id="path448"
         d="m 194.55758,712.45917 c -24.00753,-1.70844 -18.99168,-2.38085 14.85149,-1.99094 20.45254,0.23564 41.35808,-0.0532 50,-0.69076 35.78048,-2.6398 70.86725,-9.91146 84.53064,-17.51879 5.07438,-2.82524 5.78194,-2.97395 4.01387,-0.84356 -8.45006,10.18172 -37.23334,18.05252 -77.45707,21.1807 -15.24947,1.18594 -58.44578,1.10821 -75.93893,-0.13665 z"
         style="opacity:1;fill:#0173bb;fill-opacity:1;stroke-width:0.99009901" />
      <path
         transform="scale(0.26458333)"
         inkscape:connector-curvature="0"
         id="path450"
         d="m 192.93582,712.48674 c -22.90649,-1.75106 -17.95453,-2.49437 13.57268,-2.03733 46.51843,0.67438 80.53781,-2.1556 110.21895,-9.16882 10.78725,-2.54887 25.23667,-7.50993 28.93942,-9.93607 3.43062,-2.24783 3.98326,-1.80883 1.30791,1.03893 -9.11028,9.69746 -35.8748,16.93726 -74.69442,20.20484 -13.94849,1.17409 -63.48667,1.11069 -79.34454,-0.10155 z"
         style="opacity:1;fill:#0173bb;fill-opacity:1;stroke-width:0.99009901" />
      <path
         transform="scale(0.26458333)"
         inkscape:connector-curvature="0"
         id="path452"
         d="m 192.06938,712.57222 c -21.16522,-1.87251 -15.8981,-2.42877 22.99728,-2.42877 42.82255,0 54.6442,-0.73234 80.93494,-5.01384 18.54122,-3.01948 35.42437,-7.48608 44.97416,-11.89835 4.04858,-1.87056 7.52815,-3.23389 7.73241,-3.02964 0.20425,0.20425 -1.30087,1.83962 -3.34472,3.63414 -8.12051,7.12989 -24.22282,12.28509 -51.30091,16.4241 -15.48866,2.36752 -19.83375,2.59741 -54.45545,2.88113 -20.69307,0.16958 -42.08504,-0.0864 -47.53771,-0.56877 z"
         style="opacity:1;fill:#0173bb;fill-opacity:1;stroke-width:0.99009901" />
      <path
         transform="scale(0.26458333)"
         inkscape:connector-curvature="0"
         id="path454"
         d="m 252.23085,714.90649 c 0.95297,-0.24904 2.51238,-0.24904 3.46535,0 0.95297,0.24904 0.17327,0.4528 -1.73267,0.4528 -1.90595,0 -2.68565,-0.20376 -1.73268,-0.4528 z"
         style="opacity:1;fill:#0173bb;fill-opacity:1;stroke-width:0.99009901" />
      <path
         transform="scale(0.26458333)"
         inkscape:connector-curvature="0"
         id="path456"
         d="m 191.09224,712.52898 c -20.57894,-1.86486 -15.17598,-2.44123 22.85121,-2.43772 24.62657,0.002 44.37669,-0.4714 52.39631,-1.25665 30.20047,-2.95711 58.19652,-8.71168 72.79355,-14.96265 4.07245,-1.74398 8.07279,-3.4319 8.88962,-3.75095 0.81683,-0.31904 0.14852,0.85546 -1.48515,2.61 -8.57825,9.213 -35.98704,16.69952 -72.77227,19.87725 -13.30236,1.14913 -69.71449,1.09504 -82.67327,-0.0793 z"
         style="opacity:1;fill:#0173bb;fill-opacity:1;stroke-width:0.99009901" />
      <path
         transform="scale(0.26458333)"
         inkscape:connector-curvature="0"
         id="path458"
         d="m 190.59719,712.5234 c -18.60363,-1.80772 -16.85549,-2.83148 3.96039,-2.31929 25.10779,0.61779 69.60029,-0.94427 86.13862,-3.02418 25.07845,-3.15394 52.46926,-9.81706 63.57441,-15.46519 5.10748,-2.59769 5.56839,-2.34803 2.20489,1.1943 -8.79395,9.2615 -34.93785,16.43493 -71.7199,19.67869 -13.29229,1.17223 -71.89375,1.12744 -84.15841,-0.0643 z"
         style="opacity:1;fill:#0173bb;fill-opacity:1;stroke-width:0.99009901" />
      <path
         inkscape:connector-curvature="0"
         id="path480"
         d="m 53.703384,176.35607 c -4.9432,-0.92613 -8.275301,-2.63935 -7.906771,-4.06532 0.211278,-0.8175 1.92605,-2.01642 2.391875,-1.67233 2.178413,1.60913 2.555082,1.68753 8.981647,1.86947 4.182488,0.11841 6.084226,0.0532 9.016148,-0.30929 l 3.715647,-0.45935 2.054299,1.00158 c 1.641318,0.80024 1.987968,1.06681 1.724361,1.32602 -0.432494,0.42529 -4.450514,1.57723 -7.268446,2.08382 -3.282749,0.59015 -10.115129,0.71133 -12.70876,0.2254 z"
         style="opacity:1;fill:#0074bd;fill-opacity:1;stroke-width:0.2619637" />
    </g>
  </g>
</svg>
