<?xml version="1.0" encoding="UTF-8" standalone="no"?>
<!-- Created with Inkscape (http://www.inkscape.org/) -->

<svg
   xmlns:dc="http://purl.org/dc/elements/1.1/"
   xmlns:cc="http://creativecommons.org/ns#"
   xmlns:rdf="http://www.w3.org/1999/02/22-rdf-syntax-ns#"
   xmlns:svg="http://www.w3.org/2000/svg"
   xmlns="http://www.w3.org/2000/svg"
   xmlns:sodipodi="http://sodipodi.sourceforge.net/DTD/sodipodi-0.dtd"
   xmlns:inkscape="http://www.inkscape.org/namespaces/inkscape"
   version="1.1"
   id="svg89"
   width="418.63086"
   height="418.75"
   viewBox="0 0 418.63086 418.75"
   sodipodi:docname="linkedin.svg"
   inkscape:version="0.92.4 (5da689c313, 2019-01-14)">
  <metadata
     id="metadata95">
    <rdf:RDF>
      <cc:Work
         rdf:about="">
        <dc:format>image/svg+xml</dc:format>
        <dc:type
           rdf:resource="http://purl.org/dc/dcmitype/StillImage" />
        <dc:title></dc:title>
      </cc:Work>
    </rdf:RDF>
  </metadata>
  <defs
     id="defs93" />
  <sodipodi:namedview
     pagecolor="#ffffff"
     bordercolor="#666666"
     borderopacity="1"
     objecttolerance="10"
     gridtolerance="10"
     guidetolerance="10"
     inkscape:pageopacity="0"
     inkscape:pageshadow="2"
     inkscape:window-width="1920"
     inkscape:window-height="1017"
     id="namedview91"
     showgrid="false"
     showguides="false"
     inkscape:zoom="0.96"
     inkscape:cx="215.71453"
     inkscape:cy="211.17037"
     inkscape:window-x="-8"
     inkscape:window-y="-8"
     inkscape:window-maximized="1"
     inkscape:current-layer="svg89" />
  <g
     id="g3850"
     transform="translate(-184.28547,-0.94569)">
    <path
       inkscape:connector-curvature="0"
       id="path3818"
       d="m 208.125,418.71708 c -10.28989,-2.08584 -20.91685,-11.91825 -22.90902,-21.19618 -0.84215,-3.92207 -1.07734,-56.90472 -0.84714,-190.84604 0.30656,-178.38047 0.39213,-185.55502 2.25485,-189.0625 3.28734,-6.19005 10.06749,-12.35949 16.03788,-14.5933 5.45662,-2.04158 8.38961,-2.07337 191.31279,-2.07337 165.77587,0 186.18887,0.17453 189.65197,1.62147 5.6617,2.36561 14.0205,10.61443 16.8292,16.6077 l 2.4408,5.20833 0.01,186.55725 0.01,186.55726 -3.9797,6.15108 c -4.1992,6.49054 -8.2959,10.13902 -15.5101,13.81328 l -4.386,2.23363 -183.63528,-0.11979 C 294.40666,419.51 210.13017,419.12355 208.12497,418.71708 Z m 100,-138.9576 c 0,-43.16283 0.30891,-88.3972 0.68648,-100.52083 l 0.68649,-22.04296 h -32.57948 -32.57947 l 0.6883,96.09375 c 0.37857,52.85157 0.93882,97.82395 1.24502,99.93865 0.4611,3.18453 1.03476,3.91808 3.3401,4.27101 1.53086,0.23435 15.32245,0.49634 30.64797,0.58219 l 27.86459,0.15607 z m 101.39743,57.99787 c 0.37724,-11.264 0.68944,-36.45931 0.69376,-55.98958 0.004,-19.53026 0.48601,-38.55645 1.07041,-42.28041 1.43739,-9.15948 6.25889,-18.73774 11.95697,-23.7534 6.36041,-5.59864 13.83238,-7.81167 24.75313,-7.33131 10.76444,0.47349 17.04044,3.30675 22.15109,9.99996 6.65978,8.72205 6.88047,10.44169 7.85255,61.18892 0.48288,25.20833 1.01315,52.76539 1.17839,61.23792 0.24039,12.32586 0.61271,15.6016 1.86293,16.39031 0.88612,0.55901 14.37219,0.9926 31.15402,1.00165 l 29.59155,0.016 -0.6411,-64.32292 c -0.7126,-71.5018 -1.4175,-82.49609 -6.2248,-97.09199 -7.2679,-22.06686 -21.13032,-35.57213 -42.49658,-41.40186 -9.89163,-2.69891 -39.79676,-2.65512 -47.84142,0.0701 -9.8464,3.33552 -18.80534,9.00294 -27.6414,17.4859 l -8.51994,8.17949 -0.66933,-6.4038 c -0.36813,-3.52215 -0.66933,-8.42798 -0.66933,-10.90191 0,-3.46739 -0.48892,-4.75971 -2.13377,-5.64 -2.52236,-1.34993 -55.52252,-1.00176 -56.89584,0.37376 -1.05482,1.05649 -1.86125,178.9731 -0.86602,191.05948 l 0.70765,8.59375 h 30.47059 30.4706 z M 289.74342,127.39897 c 6.32634,-2.15559 16.37349,-11.32848 19.61369,-17.90695 2.06446,-4.1914 2.41112,-6.48313 2.39569,-15.83799 -0.0211,-12.80722 -1.59354,-16.81495 -9.8282,-25.04961 -8.13968,-8.13967 -12.20641,-9.71724 -25.0496,-9.71724 -9.32425,0 -11.60576,0.3471 -15.46814,2.35326 -6.45122,3.35082 -12.83408,9.57448 -16.37579,15.96734 -2.85594,5.15502 -3.05191,6.24451 -3.05191,16.96708 0,9.24716 0.37932,12.16188 1.96564,15.10417 7.41017,13.74424 20.27389,21.44506 34.00647,20.35787 3.74299,-0.29633 9.04947,-1.30339 11.79215,-2.23793 z"
       style="fill:#007bb6;fill-opacity:1;stroke-width:1.04166663" />
    <path
       inkscape:connector-curvature="0"
       id="path3826"
       d="m 249.77575,355.45957 c -0.38195,-0.38193 -0.69445,-44.86304 -0.69445,-98.84688 0,-88.54126 0.16135,-98.21435 1.6477,-98.78472 0.90623,-0.34775 14.49998,-0.63228 30.20833,-0.63228 h 28.56064 v 99.47917 99.47916 h -29.51389 c -16.23264,0 -29.82639,-0.3125 -30.20833,-0.69445 z"
       style="fill:#ffffff;fill-opacity:1;stroke-width:1.04166663" />
    <path
       inkscape:connector-curvature="0"
       id="path3834"
       d="m 261.58761,125.04822 c -7.70929,-3.72415 -14.34234,-10.23058 -17.66899,-17.3317 -3.22331,-6.88051 -3.49087,-22.664367 -0.49442,-29.166657 2.82059,-6.12067 9.54178,-13.18387 15.89308,-16.70178 5.19064,-2.87503 6.33909,-3.08989 16.51605,-3.08989 9.40875,0 11.56284,0.33389 15.41152,2.38887 6.98508,3.72962 12.35583,9.19999 15.80068,16.09374 2.78629,5.57585 3.1627,7.39453 3.16197,15.27752 -7e-4,7.720837 -0.41271,9.805467 -3.00376,15.198197 -6.06291,12.61869 -16.41843,19.3453 -30.84958,20.0389 -7.55979,0.36334 -8.9305,0.11205 -14.76655,-2.7072 z"
       style="fill:#ffffff;fill-opacity:1;stroke-width:1.04166663" />
    <path
       inkscape:connector-curvature="0"
       id="path3844"
       d="m 348.77983,256.87901 c 0,-53.52086 0.28453,-98.05211 0.63228,-98.95834 0.55526,-1.44699 4.10797,-1.64769 29.16667,-1.64769 h 28.53438 v 7.66711 c 0,4.21691 0.29449,9.81562 0.65442,12.44158 l 0.65441,4.77446 9.50184,-9.70539 c 7.91981,-8.08947 10.97602,-10.42305 18.356,-14.01581 11.72642,-5.7087 17.90978,-6.71192 37.5,-6.08416 12.40029,0.39736 17.71654,1.01952 22.91667,2.68196 15.49368,4.95321 27.35233,15.23421 34.42403,29.84441 9.0453,18.68733 10.3013,32.51127 10.3405,113.80209 l 0.027,56.51041 h -30.03772 -30.03787 l -0.71086,-57.03125 c -0.39097,-31.36718 -1.17833,-60.26191 -1.74969,-64.21049 -1.79575,-12.41036 -7.2637,-21.27436 -16.01092,-25.95504 -3.65242,-1.95444 -5.92227,-2.28238 -15.79727,-2.28238 -10.77608,0 -11.93489,0.20605 -17.67861,3.1435 -7.5973,3.8854 -13.18023,10.85143 -16.26464,20.294 -2.09035,6.39937 -2.27029,10.04249 -3.27989,66.40625 l -1.06821,59.63541 h -30.03627 -30.03625 z"
       style="fill:#ffffff;fill-opacity:1;stroke-width:1.04166663" />
  </g>
</svg>
