<?xml version="1.0" encoding="UTF-8" standalone="no"?>
<!-- Created with Inkscape (http://www.inkscape.org/) -->

<svg
   xmlns:dc="http://purl.org/dc/elements/1.1/"
   xmlns:cc="http://creativecommons.org/ns#"
   xmlns:rdf="http://www.w3.org/1999/02/22-rdf-syntax-ns#"
   xmlns:svg="http://www.w3.org/2000/svg"
   xmlns="http://www.w3.org/2000/svg"
   xmlns:sodipodi="http://sodipodi.sourceforge.net/DTD/sodipodi-0.dtd"
   xmlns:inkscape="http://www.inkscape.org/namespaces/inkscape"
   width="178.45407mm"
   height="50.373539mm"
   viewBox="0 0 178.45407 50.373539"
   version="1.1"
   id="svg8"
   inkscape:version="0.92.4 (5da689c313, 2019-01-14)"
   sodipodi:docname="logo.svg">
  <defs
     id="defs2" />
  <sodipodi:namedview
     id="base"
     pagecolor="#ffffff"
     bordercolor="#666666"
     borderopacity="1.0"
     inkscape:pageopacity="0.0"
     inkscape:pageshadow="2"
     inkscape:zoom="1.0074671"
     inkscape:cx="207.71585"
     inkscape:cy="86.121174"
     inkscape:document-units="mm"
     inkscape:current-layer="layer1"
     showgrid="false"
     inkscape:window-width="1920"
     inkscape:window-height="986"
     inkscape:window-x="-11"
     inkscape:window-y="-11"
     inkscape:window-maximized="1" />
  <metadata
     id="metadata5">
    <rdf:RDF>
      <cc:Work
         rdf:about="">
        <dc:format>image/svg+xml</dc:format>
        <dc:type
           rdf:resource="http://purl.org/dc/dcmitype/StillImage" />
        <dc:title />
      </cc:Work>
    </rdf:RDF>
  </metadata>
  <g
     inkscape:label="Layer 1"
     inkscape:groupmode="layer"
     id="layer1"
     transform="translate(-18.02677,-117.28894)">
    <flowRoot
       xml:space="preserve"
       id="flowRoot25"
       style="font-style:normal;font-weight:normal;font-size:40px;line-height:1.25;font-family:sans-serif;letter-spacing:0px;word-spacing:0px;fill:#000000;fill-opacity:1;stroke:none"
       transform="scale(0.26458333)"><flowRegion
         id="flowRegion27"><rect
           id="rect29"
           width="27.722773"
           height="48.514851"
           x="673.26733"
           y="585.88605" /></flowRegion><flowPara
         id="flowPara31" /></flowRoot>    <flowRoot
       xml:space="preserve"
       id="flowRoot33"
       style="font-style:normal;font-weight:normal;font-size:40px;line-height:1.25;font-family:sans-serif;letter-spacing:0px;word-spacing:0px;fill:#000000;fill-opacity:1;stroke:none"
       transform="scale(0.26458333)"><flowRegion
         id="flowRegion35"><rect
           id="rect37"
           width="119.80198"
           height="59.405941"
           x="669.30695"
           y="597.76721" /></flowRegion><flowPara
         id="flowPara39" /></flowRoot>    <path
       style="fill:#010101;fill-opacity:1;stroke-width:0.28409091"
       d=""
       id="path89"
       inkscape:connector-curvature="0"
       transform="scale(0.26458333)" />
    <path
       style="fill:#010101;fill-opacity:1;stroke-width:0.28409091"
       d=""
       id="path107"
       inkscape:connector-curvature="0"
       transform="scale(0.26458333)" />
    <path
       style="fill:#010101;fill-opacity:1;stroke-width:0.28409091"
       d=""
       id="path111"
       inkscape:connector-curvature="0"
       transform="scale(0.26458333)" />
    <path
       style="fill:#010101;fill-opacity:1;stroke-width:0.28409091"
       d=""
       id="path113"
       inkscape:connector-curvature="0"
       transform="scale(0.26458333)" />
    <path
       style="fill:#010101;fill-opacity:1;stroke-width:0.28409091"
       d=""
       id="path119"
       inkscape:connector-curvature="0"
       transform="scale(0.26458333)" />
    <path
       style="fill:#010101;fill-opacity:1;stroke-width:0.28409091"
       d=""
       id="path121"
       inkscape:connector-curvature="0"
       transform="scale(0.26458333)" />
    <path
       style="fill:#000000;fill-opacity:1;stroke-width:0.61349696"
       d=""
       id="path236"
       inkscape:connector-curvature="0"
       transform="scale(0.26458333)" />
    <g
       id="g352"
       transform="matrix(1.0461888,0,0,1,9.505911,5.5855366)">
      <text
         transform="scale(0.81048702,1.2338261)"
         id="text12"
         y="125.85205"
         x="8.8359365"
         style="font-style:normal;font-variant:normal;font-weight:normal;font-stretch:normal;font-size:29.23014641px;line-height:1.25;font-family:monospace;-inkscape-font-specification:monospace;letter-spacing:0px;word-spacing:0px;fill:#0088aa;fill-opacity:1;stroke:none;stroke-width:0.7307536"
         xml:space="preserve"><tspan
           style="font-style:normal;font-variant:normal;font-weight:normal;font-stretch:normal;font-family:monospace;-inkscape-font-specification:monospace;fill:#0088aa;stroke-width:0.7307536"
           y="125.85205"
           x="8.8359365"
           id="tspan10"
           sodipodi:role="line">haleyYerxa;</tspan></text>
      <path
         inkscape:connector-curvature="0"
         id="path280"
         d="m 159.69944,159.93181 c -0.64921,-0.3141 -0.85241,-0.77203 -0.96337,-2.17114 l -0.0804,-1.0149 0.42656,-0.69712 c 0.4222,-0.68997 0.42768,-0.70808 0.53499,-1.76302 0.12519,-1.2308 0.22768,-1.45632 0.81791,-1.80001 0.81448,-0.47428 1.17043,-0.75351 1.37299,-1.07706 0.22704,-0.36267 0.57678,-1.1975 1.34832,-3.21852 0.2769,-0.72531 0.64173,-1.52723 0.81074,-1.78207 0.16903,-0.25483 0.74604,-0.94449 1.28227,-1.53258 1.58873,-1.74235 2.09659,-2.54984 2.64638,-4.20734 0.32063,-0.96666 0.33066,-1.03446 0.33707,-2.27939 0.004,-0.70569 -0.028,-1.68406 -0.0706,-2.17413 -0.0863,-0.99557 -0.0679,-1.08138 0.78577,-3.68253 0.83119,-2.53249 0.72259,-3.10874 -0.93151,-4.94268 -1.24929,-1.38511 -4.33332,-5.00748 -4.54174,-5.33454 -0.12848,-0.20163 -0.24327,-0.59821 -0.33013,-1.14053 -0.15051,-0.9398 -0.27143,-1.36603 -0.38759,-1.36603 -0.0908,0 -0.26637,0.13216 -0.52607,0.39602 -0.17615,0.17898 -0.18518,0.18026 -0.41697,0.0589 -0.19825,-0.10381 -0.26658,-0.10924 -0.41878,-0.0333 -0.16035,0.08 -0.2066,0.0668 -0.39052,-0.11197 -0.24283,-0.23597 -0.18299,-0.28091 -0.84539,0.63483 -0.24814,0.34305 -0.48027,0.62372 -0.51583,0.62372 -0.0355,0 -0.10931,-0.0357 -0.1639,-0.0793 -0.13097,-0.10467 -0.25035,-0.0383 -0.57188,0.3181 -0.14681,0.16272 -0.64881,0.62463 -1.11556,1.02649 -0.65332,0.56248 -0.90158,0.73065 -1.07867,0.73065 -0.24121,0 -0.69402,0.33136 -1.6072,1.17617 l -0.46231,0.42769 -0.004,-0.30775 c -0.002,-0.28589 -0.0174,-0.30423 -0.20387,-0.25816 -0.11039,0.0273 -0.35424,0.11151 -0.54189,0.18719 -0.64637,0.2607 -0.62201,0.15225 0.24317,-1.08258 0.45324,-0.64689 0.9713,-1.35847 1.15125,-1.58131 0.17995,-0.22283 0.52126,-0.73607 0.75847,-1.14052 0.29944,-0.51058 0.61605,-0.90971 1.03568,-1.30564 1.37804,-1.30023 1.69002,-1.63846 1.53384,-1.66294 -0.0822,-0.0129 -0.33904,0.064 -0.5707,0.17109 -0.71035,0.32809 -3.9126,2.18034 -7.63743,4.41768 -0.7803,0.46869 -1.50275,0.89921 -1.60547,0.95673 -0.93978,0.52622 -3.31236,1.89516 -4.46805,2.57797 -0.78489,0.46375 -2.0742,1.22504 -2.86513,1.69175 l -1.43806,0.84859 -0.0405,1.05962 c -0.0458,1.19823 -0.1917,1.59699 -0.73968,2.02146 -0.25941,0.20095 -0.34114,0.22594 -0.60789,0.18596 -0.8092,-0.12133 -1.48877,-0.85904 -1.48877,-1.61617 0,-0.68943 0.4145,-1.36465 0.98158,-1.59902 0.14235,-0.0589 0.57258,-0.18617 0.95606,-0.28299 0.79737,-0.20131 1.21955,-0.41739 3.45485,-1.76832 0.88097,-0.53242 1.62934,-0.95444 1.66302,-0.9378 0.0337,0.0167 0.082,-0.013 0.10747,-0.066 0.0254,-0.0529 0.37079,-0.27802 0.76748,-0.50019 0.39669,-0.22214 0.72127,-0.43527 0.72127,-0.47359 0,-0.0383 0.0803,-0.0697 0.17838,-0.0697 0.0981,0 0.1784,-0.0321 0.1784,-0.0713 0,-0.0392 0.087,-0.0712 0.19325,-0.0712 0.10628,0 0.16762,-0.0204 0.1363,-0.0456 -0.0313,-0.025 0.3734,-0.27891 0.89935,-0.5642 0.94759,-0.51396 1.23529,-0.6805 1.5327,-0.88724 0.0846,-0.0589 0.27418,-0.15865 0.42126,-0.22188 0.34128,-0.14669 7.14291,-4.09732 8.19738,-4.76133 l 0.79461,-0.50036 v -1.16094 c 0,-1.08713 0.0135,-1.18126 0.21297,-1.48033 0.27306,-0.40945 1.24187,-1.18506 1.65085,-1.32163 0.54306,-0.18134 1.14349,-0.13165 2.33752,0.19349 l 1.0977,0.2989 0.56142,-0.49493 c 0.85619,-0.75477 0.95115,-0.80765 2.18053,-1.21447 1.35656,-0.44888 1.69067,-0.47578 2.26905,-0.18264 0.91548,0.46401 1.74697,1.48634 3.54555,4.3594 1.45528,2.32466 1.79778,2.99478 1.79778,3.51754 0,0.27646 -0.0485,0.34588 -0.49056,0.702 -0.27142,0.21865 -0.49056,0.4599 -0.49056,0.54003 0,0.16735 1.12104,1.99541 2.46598,4.0212 1.59939,2.40908 1.91069,3.09662 2.34651,5.18268 0.14427,0.69048 0.40485,1.66762 0.57909,2.1714 l 0.31679,0.91599 5.4e-4,2.862 5.5e-4,2.86201 -0.40877,0.28513 -0.40877,0.28513 -0.082,0.81975 c -0.0451,0.45086 -0.14174,1.41318 -0.21476,2.13848 -0.12949,1.28613 -0.21121,2.52528 -0.40664,6.16596 -0.14698,2.73795 -0.40713,4.03001 -1.22713,6.09468 -0.22579,0.56848 -0.41074,1.12982 -0.41103,1.24745 -2.9e-4,0.11761 0.13051,0.71104 0.29067,1.31873 0.16016,0.60769 0.31463,1.3838 0.34327,1.72466 0.0634,0.75487 0.16958,0.7125 -1.71296,0.68374 l -1.33787,-0.0204 0.0137,-0.89106 c 0.0113,-0.72981 0.0583,-1.01998 0.25981,-1.60384 0.22129,-0.64105 0.2451,-0.82051 0.23638,-1.78208 -0.006,-0.58808 -0.0721,-1.82183 -0.14832,-2.74166 -0.0964,-1.16323 -0.14182,-2.91029 -0.14911,-5.73826 -0.006,-2.23622 -0.0359,-4.38662 -0.0669,-4.77867 -0.0506,-0.63855 -0.0742,-0.71284 -0.2269,-0.71284 -0.21333,0 -0.63502,0.49155 -1.4371,1.67515 -0.78177,1.15361 -1.07376,1.48991 -2.22822,2.56619 -1.80388,1.68173 -2.47729,2.45909 -3.78406,4.3682 -0.90382,1.32042 -1.18095,1.78862 -1.59144,2.68879 -0.46383,1.01708 -1.501,3.60397 -1.94343,4.84723 -0.49403,1.38824 -0.68766,1.7217 -1.23313,2.12353 -0.46521,0.3427 -0.67186,0.36749 -1.14696,0.13764 z m 7.78433,-42.94881 c 0.11905,-0.30656 0.16595,-0.56356 0.1307,-0.71611 -0.0704,-0.30468 -0.7192,-0.82986 -1.26234,-1.02188 -0.73466,-0.25971 -0.73156,-0.008 0.015,1.2176 0.46678,0.76648 0.73598,1.09484 0.851,1.03803 0.0439,-0.0218 0.16352,-0.25467 0.26564,-0.51764 z"
         style="fill:#004455;fill-opacity:1;stroke-width:0.07973664" />
    </g>
  </g>
</svg>
